<svg  viewBox="0 0 130 130" fill="none" xmlns="http://www.w3.org/2000/svg">
<path d="M43.333 79.8957C42.3038 79.8957 41.2747 79.5167 40.4622 78.7042L29.6289 67.8709C28.058 66.3 28.058 63.6997 29.6289 62.1289L40.4622 51.2956C42.033 49.7247 44.633 49.7247 46.2038 51.2956C47.7747 52.8664 47.7747 55.4667 46.2038 57.0375L38.2413 64.9999L46.2038 72.9622C47.7747 74.5331 47.7747 77.1334 46.2038 78.7042C45.3913 79.5167 44.3622 79.8957 43.333 79.8957Z" fill="#FF850F"/>
<path d="M86.6664 79.8957C85.6372 79.8957 84.608 79.5167 83.7955 78.7042C82.2247 77.1334 82.2247 74.5331 83.7955 72.9622L91.758 64.9999L83.7955 57.0375C82.2247 55.4667 82.2247 52.8664 83.7955 51.2956C85.3664 49.7247 87.9663 49.7247 89.5372 51.2956L100.371 62.1289C101.941 63.6997 101.941 66.3 100.371 67.8709L89.5372 78.7042C88.7247 79.5167 87.6955 79.8957 86.6664 79.8957Z" fill="#FF850F"/>
<path d="M65 123.229C32.8792 123.229 6.77083 97.1209 6.77083 65C6.77083 32.8792 32.8792 6.77087 65 6.77087C97.1208 6.77087 123.229 32.8792 123.229 65C123.229 97.1209 97.1208 123.229 65 123.229ZM65 14.8959C37.375 14.8959 14.8958 37.375 14.8958 65C14.8958 92.625 37.375 115.104 65 115.104C92.625 115.104 115.104 92.625 115.104 65C115.104 37.375 92.625 14.8959 65 14.8959Z" fill="#2A2828"/>
<path d="M59.584 81.6837C59.0423 81.6837 58.5007 81.5754 58.0132 81.3587C55.9548 80.492 54.9798 78.1087 55.9007 75.9962L66.734 50.7002C67.6007 48.6418 69.984 47.6668 72.0423 48.5876C74.1006 49.4543 75.0756 51.8379 74.1548 53.9504L63.3215 79.2461C62.6715 80.7628 61.1548 81.6837 59.584 81.6837Z" fill="#2A2828"/>
</svg>
