<svg viewBox="0 0 130 130" fill="none" xmlns="http://www.w3.org/2000/svg">
<path d="M113.642 57.9583C112.45 36.8333 96.7959 19.2292 75.8875 15.6542C75.5625 11.4833 72.0959 8.125 67.8167 8.125H62.4C58.1209 8.125 54.7084 11.4292 54.3292 15.6C33.3125 19.0667 17.55 36.725 16.3584 57.9583C12.5125 58.6083 9.58752 61.9125 9.58752 65.9208V71.3375C9.58752 75.8333 13.2167 79.4625 17.7125 79.4625H23.1292C27.625 79.4625 31.2542 75.8333 31.2542 71.3375V65.9208C31.2542 61.9125 28.3292 58.6083 24.4834 57.9583C25.6209 41.0583 38.025 27.0292 54.6 23.7792C55.5209 27.2458 58.6625 29.7917 62.4 29.7917H67.8167C71.5542 29.7917 74.6417 27.2458 75.6167 23.8333C92.0834 27.1375 104.379 41.1667 105.517 57.9583C101.671 58.6083 98.7459 61.9125 98.7459 65.9208V71.3375C98.7459 75.8333 102.375 79.4625 106.871 79.4625H112.288C116.783 79.4625 120.413 75.8333 120.413 71.3375V65.9208C120.413 61.9125 117.488 58.5542 113.642 57.9583Z" fill="#2A2828"/>
<path d="M85.4209 89.6458L76.5375 97.5H53.5167L44.6334 89.6458C39.4875 85.4208 39.4875 82.1708 43.3875 77.1875L59.0417 57.3625C60.125 56.0083 61.3709 55.0875 62.7792 54.6C64.2417 54.1125 65.8125 54.1125 67.3292 54.6C68.6834 55.0875 69.9292 56.0083 71.0667 57.3625L86.6667 77.1333C90.6209 82.1167 90.4042 85.2042 85.4209 89.6458Z" fill="#2A2828"/>
<path d="M72.15 119.167H58.1209C53.1375 119.167 49.4 115.104 50.375 110.771L52.0542 103.242C52.3792 101.725 53.7334 100.696 55.25 100.696H75.0209C76.5375 100.696 77.8375 101.725 78.2167 103.242L79.8959 110.771C80.925 115.375 77.4584 119.167 72.15 119.167Z" fill="#FF850F"/>
</svg>
