<svg width="101" height="100" viewBox="0 0 101 100" fill="none" xmlns="http://www.w3.org/2000/svg">
<path d="M98.741 48.8529H93.2022C92.7598 31.0917 81.6406 15.8903 65.5094 9.8949H84.5066C85.0422 13.6258 88.2518 16.505 92.1298 16.505C96.381 16.505 99.8386 13.0474 99.8386 8.79725C99.8386 4.54712 96.381 1.0895 92.1298 1.0895C88.2518 1.0895 85.0422 3.96975 84.5066 7.69959H58.1529V1.66687C58.1529 1.06096 57.6623 0.569214 57.0553 0.569214H43.8318C43.2259 0.569214 42.7342 1.06096 42.7342 1.66687V7.70069H16.3816C15.846 3.96975 12.6364 1.0906 8.7595 1.0906C4.50828 1.0895 1.04956 4.54822 1.04956 8.79834C1.04956 13.0485 4.50828 16.5061 8.7595 16.5061C12.6375 16.5061 15.846 13.6258 16.3816 9.896H35.3788C19.2476 15.8914 8.12835 31.0917 7.68599 48.8529H2.14722C1.54131 48.8529 1.04956 49.3447 1.04956 49.9506V63.1707C1.04956 63.7777 1.54131 64.2684 2.14722 64.2684H15.3718C15.9777 64.2684 16.4694 63.7777 16.4694 63.1707V49.9506C16.4694 49.3447 15.9777 48.8529 15.3718 48.8529H9.8813C10.384 29.7054 23.9664 13.7038 42.7342 10.1133V14.887C42.7342 15.4929 43.2259 15.9847 43.8318 15.9847H57.0553C57.6623 15.9847 58.1529 15.4929 58.1529 14.887V10.1133C76.9218 13.7038 90.5042 29.7054 91.0069 48.854H85.5164C84.9094 48.854 84.4188 49.3458 84.4188 49.9517V63.1718C84.4188 63.7788 84.9094 64.2695 85.5164 64.2695H98.741C99.348 64.2695 99.8386 63.7788 99.8386 63.1718V49.9506C99.8386 49.3447 99.348 48.8529 98.741 48.8529ZM14.2741 62.0742H3.24487V51.0493H14.2741V62.0742ZM92.1298 3.28482C95.1703 3.28482 97.6433 5.75783 97.6433 8.79725C97.6433 11.8367 95.1692 14.3097 92.1298 14.3097C89.0882 14.3097 86.6152 11.8367 86.6152 8.79725C86.6152 5.75783 89.0882 3.28482 92.1298 3.28482ZM8.7595 14.3108C5.71899 14.3108 3.24487 11.8378 3.24487 8.79834C3.24487 5.75893 5.71899 3.28591 8.7595 3.28591C11.8 3.28591 14.2741 5.75893 14.2741 8.79834C14.2741 11.8378 11.8 14.3108 8.7595 14.3108ZM55.9576 13.7894H44.9295V2.76453H55.9576V13.7894ZM97.6433 62.0742H86.6141V51.0493H97.6433V62.0742Z" fill="#706D6D"/>
<path d="M72.7726 66.3561L51.4232 24.2171C51.376 24.1238 51.3146 24.0426 51.2443 23.9734C51.0434 23.7561 50.7624 23.6156 50.4441 23.6156C50.1258 23.6156 49.8448 23.7561 49.6439 23.9734C49.5737 24.0426 49.5122 24.1238 49.465 24.2171L28.1156 66.3561C27.9356 66.7118 27.9619 67.1377 28.1858 67.4681L38.6717 82.9571V98.2595C38.6717 98.8665 39.1635 99.3572 39.7694 99.3572H61.1188C61.7258 99.3572 62.2165 98.8665 62.2165 98.2595V82.9571L72.7035 67.4681C72.9263 67.1377 72.9537 66.7118 72.7726 66.3561ZM40.8671 97.163V83.7189H60.0212V97.163H40.8671ZM60.536 81.5236H40.3523L30.3658 66.7733L49.3465 29.3091V57.4574C49.3465 58.0644 49.8382 58.5551 50.4441 58.5551C51.05 58.5551 51.5418 58.0644 51.5418 57.4574V29.3091L70.5224 66.7722L60.536 81.5236Z" fill="#706D6D"/>
</svg>
