<svg width="161" height="161" viewBox="0 0 161 161" fill="none" xmlns="http://www.w3.org/2000/svg">
<g clip-path="url(#clip0_606_1519)">
<path d="M102.534 45.1808L101.224 44.8618L99.9003 44.6093C99.68 44.5624 99.4576 44.5312 99.2348 44.5023L98.5667 44.41C98.3437 44.3817 98.1215 44.3421 97.8974 44.3227L97.2248 44.265C95.4313 44.1123 93.6174 44.0877 91.8075 44.2507C89.889 44.4117 87.9619 44.7277 86.0864 45.2326C85.3605 45.4435 84.6312 45.638 83.9156 45.8895C83.5566 46.0103 83.196 46.1242 82.8388 46.2503L81.773 46.6495C81.0587 46.9029 80.3637 47.2177 79.66 47.5029C78.96 47.7998 78.2715 48.1293 77.5771 48.4404L78.0197 45.9732C78.7877 46.7225 79.5677 47.5053 80.3069 48.3452C81.0474 49.1831 81.7311 50.055 82.3811 50.9236C82.91 51.6305 82.7657 52.6322 82.0589 53.1611C81.671 53.4514 81.1943 53.5389 80.7556 53.442L80.709 53.4314C78.125 52.8474 75.5084 52.4697 72.8927 52.3591C70.2776 52.2472 67.6649 52.4056 65.106 52.8581L64.6779 52.9324L64.6691 52.9339C63.7083 53.1008 62.7941 52.4572 62.6272 51.4963C62.5512 51.0589 62.6447 50.6286 62.8582 50.2766C64.3912 47.7561 65.8723 45.1613 67.4294 42.5809C68.9887 40.0012 70.6141 37.4249 72.4803 34.9547C73.0797 34.1613 74.2088 34.004 75.0022 34.6035C75.5111 34.9879 75.7583 35.5902 75.712 36.1821L75.7101 36.201C75.6206 37.2418 75.5233 38.2793 75.4954 39.2338C75.4827 39.7105 75.487 40.164 75.53 40.582C75.572 41.0019 75.6468 41.3929 75.7628 41.7892L73.216 40.7022C75.4192 39.5723 77.638 38.4223 79.915 37.3356C82.1894 36.2472 84.5307 35.2285 86.9657 34.3884C88.916 33.7112 90.9847 33.2699 93.027 33.0233C93.5181 32.9726 93.9654 32.933 94.379 32.9456C94.793 32.96 95.1671 32.9962 95.5037 33.0509C95.5877 33.0661 95.6695 33.0809 95.749 33.0953C95.8384 33.114 95.9252 33.1321 96.0096 33.1497C96.1947 33.1909 96.3635 33.2388 96.5154 33.2913C96.8196 33.3965 97.0553 33.5193 97.2316 33.6462C97.7397 34.0186 97.4558 34.3703 96.9969 34.7716C96.7637 34.9683 96.4932 35.1747 96.2048 35.3253C96.1684 35.344 96.1314 35.3618 96.0938 35.3785C96.038 35.3991 95.9806 35.4202 95.9218 35.4419C95.8019 35.4841 95.676 35.5249 95.5439 35.5642C95.2798 35.6428 94.9916 35.7153 94.6794 35.7799C93.1046 36.1516 91.3914 36.5461 89.7656 36.9858L88.7916 37.2579L87.8245 37.5662C87.5012 37.6653 87.1811 37.7788 86.8616 37.8949L85.9028 38.242C84.6314 38.7338 83.3687 39.2596 82.1215 39.8404C79.6232 40.9878 77.1712 42.2904 74.7079 43.606C74.0036 43.9822 73.1277 43.7161 72.7515 43.0118C72.7094 42.933 72.6753 42.852 72.649 42.7697L72.634 42.7209C72.4499 42.1321 72.3212 41.5118 72.2505 40.9051C72.1779 40.2966 72.1629 39.7091 72.1643 39.1432C72.1722 38.0112 72.2443 36.9538 72.2992 35.9004L75.2091 37.0233L74.6391 37.8514C73.4385 39.6389 72.3248 41.6067 71.1126 43.3598C69.1979 46.1288 67.4795 49.074 65.671 52.0081L64.0787 49.6841C65.8735 49.3606 67.6905 49.1603 69.509 49.0935C71.3276 49.034 73.1459 49.1111 74.9405 49.3184C76.0315 49.4515 77.1171 49.6148 78.1969 49.8084C79.2751 50.0093 80.347 50.2389 81.4124 50.4962L79.942 52.7015C79.335 51.8603 78.7175 51.0488 78.0613 50.2822C77.4072 49.5144 76.6985 48.7778 75.9616 48.0312L75.933 48.0022C75.4046 47.4669 75.4103 46.6047 75.9456 46.0763C76.0685 45.955 76.2133 45.8602 76.3627 45.7951L77.6106 45.2567L78.2349 44.9891L78.8687 44.7411C79.3904 44.5433 79.9042 44.3288 80.4321 44.1456L82.0146 43.5957L83.6193 43.1044C84.1541 42.9411 84.7014 42.8136 85.2416 42.6671C87.4156 42.122 89.6371 41.7349 91.8806 41.5529C94.1234 41.3698 96.3868 41.3944 98.6235 41.6415C100.861 41.887 103.068 42.3542 105.209 43.0112L104.024 44.4488C103.828 44.0685 103.636 43.686 103.43 43.312C102.587 41.7407 101.709 40.2615 100.814 38.8507C99.9247 37.4367 99.0228 36.0842 98.2152 34.742C98.0357 34.4379 97.9062 34.1552 97.8246 33.922C97.7447 33.6897 97.7191 33.5113 97.7903 33.4179C97.8606 33.3256 98.0333 33.3142 98.3325 33.4459C98.481 33.5121 98.66 33.6157 98.858 33.7636C98.9333 33.82 99.0143 33.8808 99.1012 33.9458C99.1747 34.0024 99.251 34.0648 99.3298 34.1333C100.222 34.9094 101.109 35.7499 101.955 36.6659C102.8 37.5812 103.603 38.5687 104.336 39.6012C105.133 40.7301 105.825 41.9519 106.454 43.1868C106.888 44.0388 106.549 45.0813 105.697 45.5152C105.296 45.7194 104.853 45.7525 104.451 45.6416L104.435 45.6371L103.5 45.3772C103.187 45.2949 102.879 45.1946 102.562 45.1348C102.553 45.1495 102.545 45.1635 102.534 45.1808Z" fill="#ADABAB"/>
<path d="M78.5265 75.4247C74.8878 77.2193 71.3122 79.1034 67.9092 81.2453C66.1132 82.3877 64.3434 83.59 62.7187 84.9369C62.412 85.1908 62.1185 85.4575 61.8178 85.7169L61.3693 86.1086C61.2176 86.2371 61.0713 86.3704 60.9314 86.5093C60.3673 87.0606 59.7748 87.5887 59.2547 88.1734C58.9882 88.4605 58.716 88.7434 58.4539 89.033L57.7109 89.9315L57.3392 90.38L57.0038 90.8497L56.3313 91.7867L55.7344 89.5609C56.2021 89.7805 56.6574 89.9873 57.0944 90.1554C57.5331 90.3245 57.9577 90.4594 58.4225 90.5715C59.3487 90.7964 60.3885 90.9628 61.4235 91.1345C62.291 91.2784 62.8776 92.0983 62.7337 92.9659C62.6464 93.4919 62.3106 93.9146 61.8664 94.1339L61.824 94.1543C59.2843 95.3863 56.7457 96.6175 54.4252 98.0317C53.2665 98.742 52.1713 99.511 51.1066 100.356C50.0417 101.199 49.0006 102.117 47.9561 103.057C47.2389 103.703 46.1338 103.645 45.488 102.928C45.229 102.64 45.0832 102.29 45.0477 101.933L45.047 101.925C44.9969 101.424 44.9444 100.922 44.9027 100.42C44.6302 97.2783 44.5071 94.1234 44.6028 90.9414C44.6572 89.3501 44.7693 87.7522 44.9738 86.1471C45.1811 84.5423 45.4736 82.9287 45.9586 81.3131C46.2444 80.3612 47.2477 79.8213 48.1995 80.107C48.8169 80.2924 49.2609 80.7795 49.4189 81.3586L49.4212 81.3682C49.6702 82.2913 49.9604 83.1588 50.3372 83.9446C50.7122 84.7322 51.1805 85.4423 51.7546 86.1104L48.8975 86.277C50.5778 83.7894 52.2577 81.2644 54.0485 78.7828C55.8429 76.3037 57.7642 73.8718 59.915 71.6014C61.4574 69.9856 63.2336 68.5392 65.0962 67.3148C65.9778 66.7135 66.8086 66.3679 67.5046 66.1407C67.5925 66.1141 67.678 66.0882 67.7611 66.063C67.8523 66.0363 67.9721 66.0017 68.0713 65.9775C68.278 65.9262 68.4712 65.8908 68.6474 65.8691C69.0007 65.8258 69.2833 65.8364 69.4972 65.8746C70.1137 65.9928 69.8752 66.4038 69.5798 67.0075C69.4247 67.3048 69.2759 67.6402 69.1017 67.8999C69.0791 67.9325 69.0556 67.9641 69.0309 67.9947L68.9914 68.0408C68.9678 68.0643 68.9438 68.0881 68.9195 68.1122C68.8219 68.2078 68.7179 68.3051 68.6075 68.4039C68.3865 68.6015 68.1398 68.8049 67.8668 69.0126C66.5108 70.1049 65.0461 71.3085 63.6959 72.5259C61.3169 74.711 59.1842 77.2102 57.2289 79.8661C55.2617 82.5139 53.4545 85.31 51.6332 88.1242C51.1898 88.8094 50.2747 89.0055 49.5894 88.562C49.4784 88.4901 49.3802 88.4059 49.2955 88.3122L49.2519 88.263C48.5136 87.4376 47.8575 86.4953 47.3439 85.4977C46.8265 84.5005 46.447 83.4686 46.1342 82.4611C46.1144 82.3973 46.0945 82.3335 46.0742 82.2683L49.2752 82.3192C48.7472 84.4059 48.5331 86.7073 48.2688 88.8791C48.0117 90.9557 47.9191 93.079 47.9497 95.2073C47.9768 97.3359 48.1112 99.4728 48.323 101.595L45.765 100.6C46.9403 99.5523 48.1473 98.5051 49.4411 97.5228C50.7303 96.5354 52.1209 95.6537 53.5295 94.8796C55.8561 93.6143 58.2051 92.5232 60.5521 91.4312L60.9055 94.095C59.8541 93.9021 58.8004 93.7232 57.6796 93.434C57.1208 93.2901 56.5434 93.0975 56.002 92.8768C55.4585 92.6562 54.9546 92.4149 54.4676 92.1757L54.4068 92.1458C53.7472 91.8219 53.475 91.0245 53.799 90.3648C53.8344 90.2926 53.8801 90.2193 53.9261 90.1567L54.7404 89.0632C54.8785 88.8833 55.0083 88.6953 55.1537 88.5228L55.5954 88.0112C57.2539 86.0677 59.1206 84.3627 61.0723 82.8036C63.0253 81.2428 65.0826 79.8502 67.1747 78.5345C71.3652 75.9105 75.7364 73.6539 80.1213 71.4976L80.2028 73.3186L79.8081 73.1483C76.0956 71.5693 72.88 69.3678 70.706 66.7701C70.4576 66.4715 70.3151 66.2101 70.2612 66.0088C70.2482 65.9582 70.2407 65.9115 70.2383 65.8688C70.2258 65.8215 70.2748 65.8094 70.1702 65.6961C70.0959 65.612 70.0283 65.5611 69.9998 65.5212C69.982 65.5006 69.9833 65.4853 69.987 65.4702C69.9858 65.454 69.9993 65.4409 70.0264 65.432C70.0771 65.4148 70.1905 65.4102 70.3468 65.4792C70.3846 65.4958 70.4262 65.5191 70.4631 65.5427C70.4718 65.5411 70.4811 65.5393 70.4909 65.5375C70.5098 65.5346 70.5298 65.5328 70.5507 65.5321C70.6331 65.529 70.7325 65.5436 70.8492 65.578C71.0793 65.6466 71.3776 65.7897 71.7337 66.0179C73.7722 67.3004 76.011 68.4939 78.2958 69.5139C79.2518 69.9516 80.2321 70.3664 81.217 70.7807L81.2527 70.7957C82.1329 71.166 82.5464 72.1797 82.1761 73.06C82.0101 73.4545 81.7127 73.7564 81.3581 73.9348C80.4095 74.4111 79.4551 74.8826 78.5199 75.3708C78.522 75.3881 78.5241 75.4043 78.5265 75.4247Z" fill="#ADABAB"/>
<path d="M87.1877 102.037C84.9693 105.02 82.8457 108.029 81.0491 111.205C80.1076 112.891 79.2506 114.63 78.6065 116.427L78.2888 117.335C78.1882 117.64 78.1062 117.948 78.0139 118.254C77.9281 118.562 77.8247 118.865 77.7529 119.175L77.5352 120.105L77.426 120.569C77.394 120.724 77.3709 120.881 77.3428 121.037L77.1806 121.973C77.1163 122.284 77.1025 122.601 77.0623 122.914L76.9588 123.855L75.3426 122.212C75.6434 122.183 76.0199 122.111 76.3984 122.023C76.7799 121.935 77.1742 121.831 77.5735 121.72C78.3779 121.497 79.1825 121.245 80.0782 121.013C80.915 120.796 81.7694 121.298 81.9865 122.135C82.0972 122.561 82.0209 122.993 81.8085 123.342L81.7817 123.386C80.3783 125.675 79.0802 127.963 78.0662 130.359C77.0413 132.752 76.253 135.279 75.5162 137.858C75.2519 138.783 74.2878 139.319 73.3628 139.054C72.9377 138.933 72.5948 138.664 72.3741 138.318L72.358 138.293C71.9501 137.653 71.5341 137.012 71.1103 136.371C69.6024 134.093 68.0218 131.796 66.5761 129.351C65.1434 126.902 63.8168 124.293 63.0131 121.388C62.7485 120.431 63.3093 119.442 64.2656 119.177C64.7299 119.049 65.202 119.115 65.5952 119.326L65.6115 119.335C66.5102 119.821 67.3893 120.334 68.1985 120.746C69.012 121.161 69.7415 121.441 70.575 121.618L68.4009 123.229C68.6354 120.452 68.9147 117.661 69.315 114.866C69.7255 112.073 70.2613 109.277 70.9864 106.53C71.494 104.574 72.2167 102.661 72.9925 100.836C73.3572 99.9578 73.7689 99.2792 74.1628 98.7485C74.593 98.1704 75.0106 97.7887 75.3976 97.562C75.9616 97.2325 76.3018 97.486 76.4507 98.0595C76.5243 98.3473 76.5492 98.7159 76.517 99.1438C76.4894 99.5463 76.3822 100.116 76.2074 100.743C75.7695 102.332 75.2012 104.025 74.6922 105.638C74.2328 107.074 73.8246 108.524 73.4867 109.993C73.3067 110.724 73.1637 111.465 73.01 112.203C72.8758 112.946 72.7333 113.687 72.6227 114.435C72.1472 117.421 71.8846 120.455 71.692 123.503C71.6406 124.316 70.9399 124.934 70.1269 124.882C70.0678 124.879 70.0097 124.871 69.9528 124.861L69.8782 124.847C68.8876 124.658 67.8715 124.317 66.9777 123.905C66.0803 123.496 65.2829 123.064 64.4931 122.667C64.3127 122.577 64.1317 122.487 63.9477 122.395L66.3748 120.477C66.944 122.221 67.7887 123.947 68.562 125.628C69.4197 127.497 70.4835 129.315 71.6267 131.111C72.7665 132.91 73.9828 134.695 75.1476 136.555L72.3605 136.939C73.0806 134.484 73.8664 132.011 74.9408 129.621C75.5566 128.253 76.2384 126.908 76.9689 125.606C77.6988 124.302 78.4735 123.039 79.2631 121.797L80.7783 123.907C80.0062 124.094 79.1729 124.338 78.3247 124.557C77.8983 124.667 77.4646 124.774 77.0131 124.869C76.5589 124.963 76.096 125.049 75.5545 125.09L75.5002 125.094C74.7691 125.149 74.132 124.601 74.0771 123.869C74.0703 123.779 74.074 123.683 74.0848 123.596L74.2758 122.151C74.6281 119.857 75.2583 117.625 76.0785 115.491C76.8988 113.354 77.9053 111.312 79.0161 109.349C81.2427 105.42 83.8717 101.805 86.4915 98.2401L87.2061 99.8226L86.5697 99.7476C82.9516 99.3112 79.5857 98.5082 76.7485 97.2551C76.4916 97.1405 76.295 97.0208 76.1741 96.907C76.1644 96.8979 76.1504 96.896 76.139 96.9012L75.9725 96.9774C75.4731 97.2061 75.1366 97.1396 75.3815 96.4847C75.4001 96.4348 75.4408 96.3996 75.4884 96.3861L76.3292 96.1532C76.5538 96.091 76.8783 96.0738 77.296 96.1106C79.5498 96.3211 81.912 96.5418 84.2622 96.7613C85.3268 96.8579 86.4027 96.9834 87.4829 97.102L87.5062 97.1046C88.4534 97.2086 89.1369 98.0608 89.0329 99.008C88.9993 99.3139 88.8831 99.5983 88.7154 99.8315C88.1937 100.552 87.6631 101.271 87.1563 101.993C87.1664 102.007 87.1759 102.021 87.1877 102.037Z" fill="#ADABAB"/>
</g>
<defs>
<clipPath id="clip0_606_1519">
<rect width="113.163" height="113.163" fill="white" transform="translate(80.2921 0.273438) rotate(45)"/>
</clipPath>
</defs>
</svg>
