<svg width="176" height="137" viewBox="0 0 176 137" fill="none" xmlns="http://www.w3.org/2000/svg">
<path d="M19.3346 12.4042C18.9814 12.1377 18.7119 11.8228 18.5262 11.4596C18.3498 11.099 18.2346 10.6991 18.1804 10.2599C18.3429 10.0305 18.5507 9.8587 18.8037 9.74452C19.0593 9.6209 19.3308 9.5319 19.6184 9.47751C19.9154 9.42566 20.2202 9.40117 20.5328 9.40406C20.8454 9.40696 21.1461 9.41675 21.4348 9.43345C21.4864 9.46748 21.5147 9.47507 21.5197 9.4562C21.5248 9.43733 21.5458 9.45309 21.5829 9.50346C21.9503 9.49068 22.3683 9.49653 22.8369 9.521C23.3081 9.53603 23.7898 9.62467 24.2822 9.78693C24.3583 9.76689 24.4435 9.76951 24.5379 9.79479C24.6347 9.81063 24.735 9.83245 24.8388 9.86025C24.9426 9.88806 25.0416 9.9146 25.1359 9.93987C25.2328 9.95571 25.318 9.95833 25.3916 9.94773C25.4305 10.0289 25.5041 10.0941 25.6122 10.1433C25.7229 10.1831 25.8281 10.2618 25.928 10.3796C25.9632 10.3991 25.967 10.385 25.9394 10.3371C25.9143 10.2799 25.9279 10.2481 25.9801 10.2419C26.1027 10.2747 26.2036 10.3321 26.2828 10.414C26.3619 10.4959 26.4291 10.5846 26.4844 10.6803C26.5516 10.7691 26.6106 10.8506 26.6615 10.9249C26.7218 11.0017 26.7944 11.0515 26.8793 11.0743C26.9364 11.2008 27.0089 11.3264 27.0968 11.451C27.1967 11.5688 27.2859 11.6887 27.3643 11.8108C27.4523 11.9355 27.5141 12.0633 27.5498 12.1942C27.5949 12.3276 27.5985 12.465 27.5606 12.6065C27.536 12.6606 27.546 12.6987 27.5907 12.7207C27.6353 12.7428 27.6607 12.78 27.667 12.8322C27.5829 13.1837 27.4454 13.4704 27.2545 13.6922C27.0731 13.9166 26.8637 14.1132 26.6263 14.2822C26.3915 14.4417 26.145 14.5879 25.887 14.721C25.6383 14.8566 25.4 15.0101 25.1721 15.1816C25.2474 15.3534 25.3394 15.5196 25.448 15.6801C25.5686 15.8337 25.6892 15.9874 25.8098 16.141C25.9304 16.2946 26.039 16.4552 26.1357 16.6226C26.2443 16.7832 26.3243 16.9563 26.3757 17.1419C26.3888 17.2061 26.44 17.2602 26.5293 17.3044C26.5273 17.4251 26.5334 17.5532 26.5477 17.6884C26.574 17.8168 26.5955 17.9439 26.6124 18.0697C26.6317 18.1861 26.6347 18.288 26.6214 18.3755C26.6081 18.4629 26.5656 18.5273 26.4938 18.5687C26.5497 18.6242 26.571 18.6956 26.5577 18.783C26.5469 18.861 26.5305 18.9223 26.5084 18.9669C26.2327 19.166 26.0431 19.3073 25.9399 19.3909C25.8366 19.4744 25.7598 19.5347 25.7094 19.5718C25.6591 19.6088 25.61 19.6412 25.5621 19.6688C25.5143 19.6964 25.4092 19.7491 25.2468 19.8269C24.6659 19.9948 24.0691 20.1281 23.4563 20.2268C22.8554 20.3185 22.2512 20.3285 21.6436 20.2567C21.5788 20.3101 21.4941 20.343 21.3897 20.3554C21.2921 20.3799 21.183 20.3911 21.0622 20.389C20.9414 20.387 20.8125 20.3777 20.6754 20.3612C20.5477 20.3472 20.4294 20.3357 20.3206 20.3268C20.2785 20.2953 20.2591 20.2547 20.2623 20.205C20.2724 20.1673 20.2564 20.1327 20.2143 20.1012C20.1745 20.2118 20.1075 20.2545 20.0131 20.2292C19.9257 20.2159 19.8223 20.168 19.7029 20.0854C19.5834 20.0029 19.4644 19.9002 19.3456 19.7774C19.2269 19.6546 19.1257 19.5416 19.0422 19.4383C18.9723 19.5106 18.8869 19.5837 18.7862 19.6578C18.6949 19.7345 18.6065 19.7816 18.5209 19.7991C18.3939 19.7448 18.2986 19.7041 18.2351 19.677C18.1811 19.6524 18.1181 19.6608 18.0464 19.7023C17.981 19.6443 17.9358 19.5867 17.9107 19.5294C17.8831 19.4816 17.8567 19.429 17.8316 19.3717C17.804 19.3239 17.7704 19.2795 17.7308 19.2386C17.6938 19.1882 17.6319 19.1362 17.5451 19.0827C17.5766 19.0406 17.5814 18.966 17.5596 18.859C17.5402 18.7426 17.4906 18.6636 17.4108 18.622C17.4781 18.5592 17.4845 18.4598 17.43 18.3239C17.3779 18.1785 17.3486 18.024 17.3418 17.8605C17.369 17.797 17.3914 17.7322 17.4091 17.6662C17.4387 17.5932 17.4658 17.5297 17.4904 17.4757C17.527 17.4147 17.5657 17.3644 17.6067 17.3248C17.6476 17.2852 17.7036 17.2649 17.7747 17.2637C17.7981 17.1385 17.792 17.0105 17.7563 16.8796C17.8589 16.8363 17.937 16.7713 17.9905 16.6846C18.0466 16.5884 18.098 16.491 18.1447 16.3923C18.2008 16.2961 18.2604 16.2059 18.3234 16.1217C18.3889 16.028 18.473 15.9595 18.5755 15.9163C18.5643 15.8829 18.5517 15.8543 18.5379 15.8304C18.5241 15.8064 18.5235 15.7709 18.5361 15.7237C18.7408 15.5258 18.893 15.3543 18.9925 15.2091C19.0946 15.0544 19.18 14.9055 19.2488 14.7621C19.3295 14.6119 19.4127 14.4522 19.4984 14.2831C19.5842 14.114 19.7203 13.9078 19.9068 13.6646C19.9429 13.4922 20.0022 13.3464 20.0847 13.227C20.1673 13.1075 20.2486 12.9928 20.3286 12.8828C20.4206 12.7659 20.4997 12.6405 20.5659 12.5066C20.6321 12.3727 20.6716 12.2064 20.6844 12.0076C20.519 11.9835 20.3859 12.0085 20.2852 12.0826C20.1939 12.1593 20.1173 12.2752 20.0555 12.4305C19.9504 12.4832 19.8318 12.4919 19.6997 12.4565C19.5702 12.4117 19.4485 12.3943 19.3346 12.4042ZM24.8286 16.8032C24.5232 16.509 24.2247 16.3027 23.9329 16.1841C23.6506 16.068 23.3664 15.9969 23.0802 15.9707C22.8059 15.9377 22.5361 15.926 22.2706 15.9358C22.0051 15.9455 21.7447 15.9364 21.4894 15.9084C21.2808 16.1963 21.0587 16.5159 20.823 16.8673C20.5873 17.2186 20.3589 17.5618 20.1376 17.8968C20.4899 17.9407 20.8201 17.9533 21.1284 17.9348C21.4366 17.9163 21.738 17.8859 22.0324 17.8434C22.3294 17.7916 22.6204 17.7432 22.9054 17.6982C23.193 17.6438 23.4874 17.6014 23.7888 17.571C23.8474 17.4653 23.9327 17.3922 24.0448 17.3514C24.1568 17.3107 24.2675 17.2746 24.377 17.2433C24.4891 17.2025 24.5882 17.1533 24.6744 17.0955C24.7607 17.0377 24.8121 16.9403 24.8286 16.8032ZM25.0248 12.1091C24.445 11.9335 23.8557 11.8312 23.2569 11.8022C22.6581 11.7731 22.1337 11.8247 21.6838 11.9569C21.8294 12.1678 21.9849 12.3611 22.1501 12.5368C22.3248 12.7151 22.4362 12.9218 22.4844 13.1572C22.9852 13.0993 23.442 12.979 23.8549 12.7965C24.2703 12.6045 24.6603 12.3753 25.0248 12.1091ZM34.0794 22.406C33.9799 22.5512 33.8508 22.6935 33.6921 22.8329C33.5453 22.9655 33.3788 23.0776 33.1925 23.1692C33.0182 23.2539 32.83 23.3147 32.628 23.3516C32.426 23.3885 32.2248 23.3851 32.0241 23.3414C31.9091 23.2803 31.833 23.2245 31.796 23.1741C31.7658 23.1357 31.731 23.0961 31.6914 23.0551C31.6681 23.0287 31.6436 23.0069 31.6179 22.9899C31.6041 22.966 31.589 22.9468 31.5726 22.9323L31.4218 22.8161L31.5277 22.6473C31.5668 22.5769 31.5772 22.519 31.559 22.4737C31.5434 22.419 31.5032 22.3425 31.4385 22.2443C31.4178 22.2084 31.3971 22.1725 31.3764 22.1366C31.3557 22.1007 31.3397 22.0661 31.3284 22.0328L31.1599 21.6995L31.5685 21.7028C31.822 21.7 32.0004 21.6568 32.1036 21.5732C32.2163 21.4922 32.2961 21.3266 32.3429 21.0762C32.1644 20.988 32.0053 20.9403 31.8657 20.9332C31.7355 20.9286 31.5993 20.9275 31.4571 20.9299C31.2747 20.9315 31.0888 20.9272 30.8994 20.9169C30.7221 20.8997 30.5296 20.8633 30.3221 20.8077C30.2466 20.7875 30.1759 20.7686 30.1099 20.7509C30.0464 20.7237 29.9781 20.6954 29.9052 20.6657L29.7713 20.5995C29.7802 20.4907 29.7765 20.429 29.7602 20.4145C29.7464 20.3906 29.7326 20.3667 29.7188 20.3428C29.6842 20.283 29.6488 20.2078 29.6124 20.1171C29.588 20.0196 29.6064 19.9133 29.6675 19.7983C29.6431 19.7007 29.6375 19.6082 29.6509 19.5208C29.5639 19.6189 29.4899 19.7254 29.4287 19.8404L29.3342 19.9668L29.1851 19.9571C29.1638 19.9615 29.1433 19.9813 29.1237 20.0165C29.1067 20.0423 29.0957 20.0646 29.0906 20.0835L28.9554 20.3051C28.9315 20.3189 28.9076 20.3327 28.8837 20.3465C28.8623 20.3509 28.8396 20.36 28.8157 20.3738C28.7741 20.4536 28.7278 20.5322 28.6767 20.6095C28.6257 20.6868 28.5759 20.7594 28.5274 20.8273C28.4473 20.9373 28.372 21.0485 28.3015 21.1611C28.2428 21.2667 28.2031 21.3773 28.1822 21.4931L28.0839 21.6335C28.0215 21.6775 27.957 21.7108 27.8903 21.7333C27.8261 21.7465 27.7619 21.7596 27.6978 21.7727C27.6738 21.7865 27.6405 21.7978 27.5977 21.8066C27.5669 21.8084 27.5408 21.8115 27.5194 21.8159L27.4352 21.9602L27.2579 21.943C27.149 21.934 27.0698 21.928 27.0201 21.9248C26.9798 21.9241 26.9314 21.9162 26.8748 21.901L26.7371 21.8489C26.6561 21.7362 26.5936 21.6487 26.5496 21.5864C26.5082 21.5146 26.4561 21.4451 26.3933 21.3777C26.3387 21.2417 26.3143 21.1442 26.32 21.0851C26.3257 21.026 26.3302 20.9715 26.3334 20.9219C26.3297 20.8602 26.3329 20.8105 26.343 20.7728C26.3437 20.7325 26.3371 20.7004 26.3233 20.6765L26.1849 20.4574L26.3746 20.3718L26.4532 20.135C26.7708 19.7045 27.0927 19.2954 27.4191 18.9076C27.7548 18.5224 28.0978 18.1291 28.448 17.7275C28.5639 17.5968 28.6751 17.4648 28.7816 17.3316C28.8975 17.2009 29.0134 17.0702 29.1293 16.9395C29.1275 16.9087 29.1316 16.8744 29.1417 16.8366C29.1518 16.7989 29.1726 16.759 29.2041 16.7169C29.3509 16.5843 29.4737 16.4656 29.5726 16.3606C29.674 16.2463 29.7754 16.1319 29.8768 16.0175C29.9952 15.8774 30.1124 15.742 30.2283 15.6113C30.3536 15.4831 30.4991 15.3553 30.6647 15.2278L30.9176 15.1894C30.9485 15.1875 30.984 15.1869 31.0243 15.1876C31.067 15.1789 31.112 15.1808 31.1592 15.1934L31.3638 15.2786C31.6608 15.2268 31.9374 15.1189 32.1936 14.955C32.4524 14.7817 32.7272 14.5672 33.0182 14.3115L33.2127 14.1513L33.3663 14.3138C33.4059 14.3548 33.4644 14.4008 33.5417 14.4518C33.6215 14.4934 33.7048 14.541 33.7916 14.5946C33.9512 14.6778 34.1002 14.7632 34.2385 14.8508C34.3768 14.9384 34.4805 15.042 34.5495 15.1616C34.5657 15.3277 34.5684 15.4498 34.5576 15.5278C34.5468 15.6058 34.5407 15.685 34.5394 15.7655C34.5247 15.9335 34.5053 16.1001 34.4812 16.2656C34.4665 16.4335 34.4374 16.6178 34.3937 16.8184C34.3979 16.9914 34.3927 17.1619 34.378 17.3298C34.3753 17.4908 34.3666 17.6553 34.352 17.8233C34.3385 18.0623 34.3262 18.2966 34.3153 18.5262C34.3068 18.7464 34.3151 18.9609 34.34 19.1698C34.4154 19.19 34.4613 19.2073 34.4777 19.2218C34.5299 19.2156 34.5809 19.2141 34.6305 19.2173C34.6897 19.223 34.7535 19.23 34.8221 19.2383L34.9815 19.2658L35.0002 19.4225C34.997 19.4722 35.0315 19.532 35.1038 19.6019C35.2239 19.6442 35.3059 19.6965 35.3499 19.7588C35.3963 19.8117 35.4369 19.8681 35.4714 19.9279C35.499 19.9757 35.5291 20.0141 35.5618 20.0431L35.7513 20.1849L35.5813 20.3668C35.4414 20.5113 35.2604 20.6397 35.0382 20.7521C34.828 20.8575 34.6005 20.933 34.3557 20.9786C34.35 21.0378 34.3396 21.0956 34.3244 21.1522C34.3212 21.2019 34.3214 21.2576 34.3251 21.3192C34.3105 21.4872 34.2898 21.6586 34.2632 21.8334C34.2366 22.0083 34.1898 22.1828 34.1229 22.3569L34.0794 22.406ZM30.6462 18.8624C30.9342 18.9194 31.194 18.9688 31.4254 19.0106C31.6688 19.0455 31.9396 19.0725 32.2378 19.0918C32.2475 18.7911 32.2552 18.4797 32.2606 18.1576C32.2685 17.8261 32.2705 17.4981 32.2665 17.1735L32.1437 17.2922C31.9019 17.4398 31.6586 17.6121 31.4136 17.8094C31.1781 18.0091 30.97 18.2011 30.7892 18.3852C30.7099 18.4549 30.6306 18.5246 30.5512 18.5944C30.4719 18.6641 30.3972 18.7351 30.3273 18.8073C30.3865 18.8131 30.4396 18.8223 30.4868 18.8349C30.5434 18.8501 30.5965 18.8592 30.6462 18.8624ZM36.3443 17.4624C36.4634 17.282 36.6127 17.14 36.7921 17.0364C36.9809 16.9354 37.1729 16.8604 37.3679 16.8116C37.575 16.7558 37.7817 16.7202 37.988 16.7048C38.1944 16.6893 38.3888 16.6807 38.5712 16.679C38.9915 16.6198 39.4328 16.5763 39.8952 16.5485C40.3695 16.5139 40.8436 16.4993 41.3172 16.5049C41.8003 16.513 42.2815 16.5662 42.7607 16.6642C43.2425 16.7529 43.7226 16.9422 44.2009 17.2321C44.2039 17.334 44.2224 17.435 44.2562 17.5351C44.2901 17.6351 44.3239 17.7352 44.3578 17.8352C44.4011 17.9378 44.4349 18.0379 44.4593 18.1354C44.4863 18.2235 44.4931 18.3113 44.4798 18.3987C44.5514 18.5089 44.6015 18.6234 44.6303 18.7424C44.6617 18.8519 44.637 18.9817 44.5563 19.132C44.4417 19.1822 44.3284 19.2276 44.2164 19.2684C44.1163 19.3022 44.0081 19.3288 43.8917 19.3482C43.5655 19.1698 43.2193 19.0467 42.8533 18.979C42.4872 18.9112 42.1602 18.8489 41.8722 18.7919C41.81 18.6843 41.7176 18.614 41.595 18.5812C41.4818 18.5508 41.3541 18.5368 41.212 18.5392C41.0792 18.544 40.9418 18.5477 40.7996 18.55C40.6669 18.5549 40.5464 18.5327 40.4383 18.4835C40.3237 18.5337 40.1919 18.554 40.0428 18.5444C39.9057 18.5279 39.7545 18.5075 39.589 18.4834C39.567 18.5281 39.5676 18.5636 39.5908 18.5901C39.6166 18.6071 39.6137 18.6367 39.5822 18.6788C39.6211 18.76 39.6792 18.8261 39.7565 18.8771C39.8433 18.9307 39.93 18.9843 40.0168 19.0378C40.1129 19.0939 40.1925 19.1557 40.2553 19.2231C40.3206 19.281 40.3548 19.361 40.3578 19.4629C40.4993 19.5008 40.6131 19.5667 40.6992 19.6605C40.7853 19.7543 40.8487 19.8572 40.8894 19.9693C40.9302 20.0813 40.9495 20.1977 40.9475 20.3185C40.9574 20.4323 40.951 20.5317 40.9283 20.6166C40.9364 20.6997 40.9605 20.7415 41.0008 20.7422C41.041 20.7429 41.0784 20.7731 41.113 20.8329C41.1084 20.9631 41.145 21.1094 41.2228 21.2718C41.3032 21.4248 41.3561 21.5856 41.3817 21.7542C41.3374 21.9951 41.2947 22.2111 41.2536 22.4023C41.215 22.584 41.1327 22.7591 41.0067 22.9276C40.7716 23.2387 40.4901 23.4969 40.1622 23.7022C39.8436 23.91 39.4949 24.0794 39.1161 24.2105C38.7492 24.3346 38.3663 24.4241 37.9674 24.479C37.5685 24.5338 37.1854 24.5677 36.818 24.5804C36.7828 24.5609 36.745 24.5508 36.7048 24.5501C36.6645 24.5494 36.6614 24.5233 36.6954 24.4718C36.6023 24.5176 36.506 24.5373 36.4066 24.5309C36.3167 24.527 36.2211 24.5064 36.1198 24.4692C36.0161 24.4414 35.9089 24.4076 35.7982 24.3679C35.697 24.3306 35.5967 24.3088 35.4973 24.3024C35.4489 24.2187 35.4053 24.1362 35.3664 24.055C35.3344 23.9858 35.3169 23.9002 35.3139 23.7983C35.2667 23.7856 35.2495 23.7557 35.2621 23.7086C35.2842 23.6639 35.2763 23.6366 35.2386 23.6265C35.3205 23.5473 35.358 23.5017 35.3511 23.4898C35.3561 23.4709 35.3457 23.453 35.32 23.436C35.3036 23.4215 35.2873 23.407 35.271 23.3925C35.2572 23.3686 35.2588 23.3437 35.2758 23.318C35.3337 23.2526 35.3706 23.1715 35.3865 23.0746C35.4048 22.9684 35.4232 22.8621 35.4416 22.7558C35.4599 22.6495 35.4912 22.5517 35.5353 22.4624C35.5889 22.3757 35.6799 22.3192 35.8082 22.2929C36.1188 22.4166 36.4232 22.488 36.7214 22.5073C37.0315 22.5196 37.3291 22.5033 37.6141 22.4583C37.8991 22.4134 38.1725 22.3552 38.4343 22.2838C38.7055 22.2149 38.9682 22.1589 39.2224 22.1158C39.2734 22.0385 39.3301 21.9779 39.3924 21.9339C39.4642 21.8925 39.5347 21.8558 39.6039 21.8238C39.6732 21.7918 39.7389 21.7538 39.8013 21.7098C39.8636 21.6659 39.9156 21.604 39.9572 21.5241C39.9843 21.4606 39.9755 21.4178 39.9309 21.3958C39.8982 21.3668 39.8895 21.324 39.9046 21.2674L39.7604 21.1833C39.609 21.0315 39.4289 20.8922 39.2202 20.7655C39.014 20.6294 38.8421 20.4974 38.7045 20.3696C38.5856 20.3984 38.4828 20.386 38.396 20.3324C38.3187 20.2814 38.2131 20.2227 38.0792 20.1565C37.7635 20.0517 37.4611 19.9353 37.1719 19.8072C36.8921 19.6817 36.6319 19.521 36.3912 19.3251C36.3849 19.2729 36.3727 19.2241 36.3545 19.1788C36.3363 19.1335 36.287 19.1101 36.2065 19.1088C36.1701 19.0181 36.1325 18.9322 36.0935 18.851C36.0572 18.7604 36.0268 18.6663 36.0024 18.5688C36.0516 18.4607 36.091 18.3701 36.1206 18.2972C36.1528 18.2148 36.146 18.1271 36.1002 18.0339C36.1708 17.9214 36.2256 17.8299 36.2647 17.7595C36.3038 17.6891 36.3303 17.5901 36.3443 17.4624ZM44.3978 25.3831C44.3691 25.6787 44.2909 25.8953 44.163 26.0329C44.0446 26.1731 43.8998 26.2606 43.7287 26.2957C43.5644 26.3426 43.3867 26.3456 43.1955 26.3045C43.0043 26.2633 42.8276 26.2059 42.6654 26.1321C42.6065 25.9748 42.5658 25.7869 42.5434 25.5686C42.521 25.3503 42.5046 25.1285 42.4942 24.9033C42.4863 24.6687 42.4819 24.44 42.4809 24.2173C42.4893 23.9972 42.4962 23.8019 42.5014 23.6314C42.5789 23.5308 42.6413 23.4111 42.6887 23.2721C42.748 23.1262 42.7978 22.9778 42.8383 22.8269C42.8882 22.6785 42.9333 22.5288 42.9738 22.3779C43.0262 22.2201 43.0807 22.073 43.1375 21.9365C43.3097 21.558 43.5051 21.206 43.7238 20.8804C43.9519 20.5573 44.1555 20.2125 44.3346 19.846C44.3762 19.7662 44.3883 19.6835 44.3708 19.5979C44.3627 19.5148 44.3769 19.4428 44.4135 19.3819C44.433 19.3467 44.4676 19.3307 44.5173 19.3339C44.5696 19.3276 44.6067 19.3022 44.6288 19.2576C44.6849 19.1614 44.7123 19.0778 44.7112 19.0067C44.7194 18.9381 44.7598 18.863 44.8322 18.7813C44.8996 18.7185 44.9853 18.6252 45.0892 18.5014C45.2051 18.3706 45.2751 18.2226 45.2992 18.0572C45.3993 18.0233 45.4971 17.9788 45.5928 17.9235C45.6885 17.8683 45.7817 17.8225 45.8723 17.7861C45.9749 17.7428 46.0797 17.7102 46.1866 17.6883C46.303 17.669 46.432 17.6783 46.5735 17.7162C46.6237 17.8307 46.643 17.9471 46.6316 18.0654C46.6295 18.1862 46.6228 18.3057 46.6113 18.4239C46.6093 18.5447 46.6179 18.6633 46.6373 18.7797C46.6592 18.8866 46.7192 18.9836 46.8172 19.0705C46.797 19.146 46.7717 19.2403 46.7414 19.3535C46.711 19.4667 46.6854 19.5812 46.6645 19.6969C46.6461 19.8032 46.6385 19.9073 46.6415 20.0092C46.6565 20.1042 46.6979 20.1759 46.7658 20.2245C46.4747 20.6317 46.1943 21.0368 45.9245 21.4397C45.6643 21.8452 45.4263 22.2616 45.2106 22.6891C44.9975 23.1072 44.8161 23.5389 44.6665 23.984C44.5263 24.4318 44.4368 24.8981 44.3978 25.3831ZM51.6523 28.4188C51.4988 28.3878 51.3114 28.3325 51.0901 28.253C50.8782 28.176 50.6665 28.1547 50.4551 28.189C49.9602 28.0362 49.4673 27.8384 48.9763 27.5956C48.4853 27.3528 48.043 27.0978 47.6496 26.8307C47.583 26.7016 47.514 26.582 47.4424 26.4718C47.3734 26.3522 47.2637 26.2521 47.1135 26.1714C46.9351 25.9315 46.8093 25.6653 46.736 25.3727C46.6653 25.0706 46.6267 24.762 46.6201 24.4469C46.6136 24.1317 46.6366 23.8194 46.6892 23.51C46.7443 23.1911 46.8145 22.8914 46.8998 22.611C47.155 22.2244 47.4504 21.9143 47.786 21.6807C48.1335 21.4402 48.4845 21.2057 48.8389 20.9771C48.9767 20.9534 49.0815 20.9208 49.1532 20.8793C49.237 20.831 49.3181 20.7921 49.3968 20.7626C49.4874 20.7263 49.5721 20.6933 49.6508 20.6639C49.7414 20.6275 49.8251 20.5791 49.9019 20.5188C50.1127 20.5248 50.3001 20.5042 50.4644 20.4572C50.6406 20.4034 50.8121 20.3482 50.9788 20.2918C51.1481 20.2259 51.3196 20.1708 51.4933 20.1263C51.667 20.0819 51.8592 20.0626 52.0699 20.0685C52.1681 20.0038 52.2754 19.9618 52.3918 19.9425C52.5107 19.9137 52.6284 19.8896 52.7448 19.8702C52.8732 19.844 52.9921 19.8152 53.1016 19.7838C53.2205 19.7551 53.3209 19.7011 53.4028 19.6219C53.4297 19.71 53.4882 19.756 53.5781 19.7599C53.6706 19.7543 53.7584 19.7475 53.8414 19.7394C53.8911 19.7426 53.9263 19.7622 53.947 19.7981C53.9772 19.8365 54.0026 19.8736 54.0233 19.9095C54.044 19.9454 54.0626 19.9706 54.0789 19.9851C54.1072 19.9926 54.1371 19.9754 54.1686 19.9333C54.2158 19.9459 54.2236 19.9733 54.1921 20.0154C54.1606 20.0575 54.1376 20.0867 54.1231 20.1031C54.2011 20.1138 54.2574 20.1491 54.2919 20.2089C54.3384 20.2618 54.4169 20.3082 54.5276 20.3479C54.5527 20.4052 54.552 20.4455 54.5256 20.4687C54.5017 20.4825 54.4821 20.5177 54.4669 20.5743C54.7272 20.735 54.8698 20.9198 54.8947 21.1287C54.9221 21.3282 54.8763 21.5181 54.7572 21.6985C54.6381 21.8789 54.4709 22.0312 54.2556 22.1555C54.0403 22.2798 53.826 22.3437 53.6128 22.3472C53.1271 22.3486 52.6613 22.3703 52.2152 22.4126C51.7811 22.4479 51.3988 22.5729 51.0683 22.7877C50.8242 22.7931 50.5974 22.8283 50.3879 22.8935C50.1903 22.9518 49.9923 23.0302 49.7941 23.1287C49.6078 23.2203 49.4236 23.3226 49.2417 23.4356C49.0717 23.5417 48.8923 23.6453 48.7035 23.7464C48.6775 23.881 48.6261 23.9784 48.5493 24.0387C48.4845 24.0921 48.4183 24.1502 48.351 24.213C48.3319 24.3596 48.3308 24.4958 48.3476 24.6216C48.367 24.738 48.3911 24.8557 48.4199 24.9746C48.9919 25.3301 49.6206 25.6249 50.306 25.8591C51.0008 26.0958 51.7007 26.3137 52.4056 26.5127C52.4464 26.6247 52.4979 26.7345 52.56 26.8422C52.6341 26.9429 52.6963 27.0506 52.7464 27.1651C52.7992 27.2702 52.8339 27.3857 52.8508 27.5115C52.8701 27.6279 52.8442 27.7625 52.7729 27.9153C52.6029 28.0214 52.4213 28.1143 52.2281 28.194C52.0374 28.2642 51.8455 28.3391 51.6523 28.4188ZM61.0197 29.6246C60.9202 29.7698 60.791 29.9121 60.6323 30.0516C60.4856 30.1841 60.3191 30.2962 60.1328 30.3878C59.9584 30.4725 59.7703 30.5333 59.5683 30.5702C59.3663 30.6071 59.165 30.6037 58.9644 30.5601C58.8494 30.4989 58.7733 30.4431 58.7363 30.3928C58.7061 30.3544 58.6712 30.3147 58.6317 30.2737C58.6084 30.2473 58.5839 30.2256 58.5581 30.2085C58.5443 30.1846 58.5293 30.1654 58.5129 30.1509L58.3621 30.0347L58.468 29.8659C58.5071 29.7955 58.5175 29.7376 58.4993 29.6923C58.4837 29.6376 58.4435 29.5611 58.3788 29.4629C58.3581 29.427 58.3374 29.3911 58.3167 29.3553C58.2959 29.3194 58.2799 29.2848 58.2687 29.2514L58.1002 28.9181L58.5087 28.9214C58.7622 28.9186 58.9406 28.8754 59.0439 28.7919C59.1566 28.7108 59.2364 28.5452 59.2832 28.2949C59.1047 28.2066 58.9456 28.1589 58.8059 28.1518C58.6757 28.1473 58.5395 28.1462 58.3974 28.1485C58.2149 28.1502 58.0291 28.1459 57.8397 28.1356C57.6623 28.1184 57.4699 28.082 57.2624 28.0264C57.1869 28.0061 57.1162 27.9872 57.0501 27.9695C56.9866 27.9424 56.9184 27.914 56.8455 27.8843L56.7116 27.8181C56.7205 27.7093 56.7168 27.6476 56.7005 27.6332C56.6867 27.6092 56.6728 27.5853 56.659 27.5614C56.6245 27.5016 56.5891 27.4264 56.5527 27.3357C56.5283 27.2382 56.5466 27.1319 56.6078 27.0169C56.5834 26.9193 56.5778 26.8269 56.5911 26.7394C56.5042 26.8375 56.4302 26.944 56.369 27.0591L56.2745 27.1854L56.1254 27.1758C56.104 27.1801 56.0836 27.1999 56.064 27.2351C56.047 27.2609 56.036 27.2832 56.0309 27.3021L55.8957 27.5237C55.8718 27.5375 55.8479 27.5513 55.824 27.5651C55.8026 27.5695 55.7799 27.5786 55.756 27.5924C55.7144 27.6722 55.668 27.7508 55.617 27.8281C55.5659 27.9054 55.5162 27.978 55.4676 28.0459C55.3876 28.1559 55.3123 28.2672 55.2417 28.3797C55.1831 28.4853 55.1433 28.596 55.1224 28.7117L55.0241 28.8522C54.9618 28.8961 54.8973 28.9294 54.8306 28.9519C54.7664 28.9651 54.7022 28.9782 54.638 28.9913C54.6141 29.0052 54.5808 29.0164 54.538 29.0252C54.5072 29.027 54.481 29.0302 54.4597 29.0345L54.3755 29.1788L54.1981 29.1616C54.0893 29.1527 54.0101 29.1466 53.9604 29.1434C53.9201 29.1427 53.8717 29.1348 53.8151 29.1196L53.6774 29.0676C53.5964 28.9549 53.5339 28.8674 53.4899 28.805C53.4485 28.7333 53.3964 28.6637 53.3335 28.5963C53.279 28.4604 53.2545 28.3628 53.2603 28.3037C53.266 28.2446 53.2705 28.1902 53.2737 28.1405C53.27 28.0788 53.2732 28.0291 53.2833 27.9914C53.284 27.9511 53.2774 27.9191 53.2636 27.8951L53.1252 27.6761L53.3149 27.5904L53.3935 27.3537C53.7111 26.9231 54.033 26.514 54.3593 26.1263C54.6951 25.7411 55.0381 25.3477 55.3883 24.9461C55.5042 24.8154 55.6154 24.6835 55.7219 24.5502C55.8378 24.4195 55.9537 24.2888 56.0696 24.1581C56.0677 24.1273 56.0719 24.093 56.082 24.0553C56.0921 24.0175 56.1129 23.9776 56.1444 23.9355C56.2911 23.803 56.4139 23.6842 56.5128 23.5793C56.6142 23.4649 56.7157 23.3505 56.8171 23.2362C56.9355 23.096 57.0527 22.9606 57.1686 22.8299C57.2939 22.7017 57.4394 22.5739 57.605 22.4464L57.8579 22.408C57.8887 22.4062 57.9243 22.4056 57.9645 22.4062C58.0073 22.3975 58.0523 22.3994 58.0995 22.4121L58.3041 22.4972C58.6011 22.4454 58.8777 22.3375 59.1339 22.1736C59.3927 22.0003 59.6675 21.7858 59.9584 21.5301L60.153 21.37L60.3066 21.5325C60.3462 21.5734 60.4046 21.6194 60.482 21.6704C60.5618 21.712 60.6451 21.7596 60.7318 21.8132C60.8915 21.8964 61.0405 21.9818 61.1788 22.0695C61.3171 22.1571 61.4208 22.2607 61.4898 22.3803C61.506 22.5464 61.5087 22.6684 61.4979 22.7464C61.4871 22.8244 61.481 22.9036 61.4797 22.9842C61.465 23.1521 61.4456 23.3188 61.4215 23.4842C61.4068 23.6521 61.3777 23.8364 61.334 24.037C61.3382 24.21 61.333 24.3805 61.3183 24.5484C61.3156 24.7095 61.3069 24.874 61.2922 25.0419C61.2787 25.2809 61.2665 25.5152 61.2555 25.7448C61.2471 25.965 61.2553 26.1795 61.2803 26.3884C61.3557 26.4086 61.4016 26.426 61.418 26.4404C61.4702 26.4342 61.5211 26.4327 61.5708 26.4359C61.6299 26.4416 61.6938 26.4486 61.7623 26.4569L61.9218 26.4845L61.9405 26.6411C61.9373 26.6908 61.9718 26.7506 62.044 26.8205C62.1641 26.8628 62.2462 26.9151 62.2901 26.9774C62.3366 27.0303 62.3771 27.0867 62.4117 27.1465C62.4393 27.1943 62.4694 27.2327 62.5021 27.2617L62.6916 27.4035L62.5215 27.5854C62.3817 27.7299 62.2007 27.8583 61.9785 27.9707C61.7683 28.0761 61.5408 28.1516 61.296 28.1973C61.2903 28.2564 61.2798 28.3142 61.2647 28.3708C61.2615 28.4205 61.2617 28.4762 61.2654 28.5379C61.2507 28.7058 61.2301 28.8772 61.2035 29.052C61.1768 29.2269 61.1301 29.4014 61.0632 29.5756L61.0197 29.6246ZM57.5865 26.0811C57.8745 26.138 58.1343 26.1874 58.3657 26.2292C58.6091 26.2641 58.8799 26.2912 59.178 26.3104C59.1878 26.0097 59.1954 25.6983 59.2008 25.3763C59.2088 25.0447 59.2108 24.7167 59.2067 24.3921L59.0839 24.5108C58.8422 24.6584 58.5989 24.8308 58.3539 25.028C58.1184 25.2278 57.9103 25.4197 57.7295 25.6038C57.6502 25.6735 57.5708 25.7432 57.4915 25.813C57.4121 25.8827 57.3375 25.9537 57.2676 26.026C57.3267 26.0317 57.3799 26.0409 57.427 26.0535C57.4836 26.0687 57.5368 26.0779 57.5865 26.0811ZM65.4122 31.9086C65.1254 31.9227 64.8149 31.9305 64.4809 31.932C64.1468 31.9335 63.8242 31.8926 63.5129 31.8091C63.0413 31.6828 62.7003 31.465 62.4899 31.1559C62.4705 31.0395 62.447 30.9574 62.4194 30.9095C62.4012 30.8642 62.383 30.8189 62.3648 30.7736C62.3586 30.7214 62.3609 30.6563 62.3717 30.5783C62.2939 30.4159 62.2447 30.241 62.2242 30.0535C62.2062 29.8566 62.207 29.6647 62.2267 29.4779C62.2584 29.2842 62.3043 29.0943 62.3643 28.9081C62.4337 28.7245 62.5147 28.5541 62.6074 28.397C62.6363 28.3643 62.6559 28.3291 62.666 28.2914C62.6855 28.2562 62.7063 28.2163 62.7284 28.1716C62.8066 28.0308 62.8835 27.8947 62.9591 27.7633C63.0442 27.6345 63.1384 27.5283 63.2417 27.4447C63.2267 27.3497 63.2519 27.2554 63.3175 27.1617C63.383 27.0681 63.4507 26.9851 63.5206 26.9129C63.7488 26.5898 63.9381 26.317 64.0887 26.0945C64.2513 25.8651 64.4126 25.6404 64.5727 25.4204C64.8467 25.0389 65.1101 24.6596 65.3629 24.2825C65.6156 23.9053 65.863 23.4914 66.1051 23.0406C66.1932 23.0137 66.2586 22.9958 66.3014 22.9871C66.363 22.9834 66.414 22.9819 66.4543 22.9826C66.6013 23.1129 66.7766 23.2509 66.9803 23.3965C67.1865 23.5326 67.365 23.6209 67.5159 23.6613C67.5788 23.7287 67.6158 23.7791 67.6271 23.8124C67.6409 23.8364 67.6547 23.8603 67.6685 23.8842C67.7394 24.0346 67.7949 24.186 67.835 24.3383C67.8776 24.4811 67.8569 24.6525 67.773 24.8524C67.6937 24.9222 67.6399 24.9532 67.6116 24.9457C67.5139 25.1217 67.419 25.2681 67.327 25.385C67.2445 25.5045 67.1572 25.6226 67.0652 25.7395C66.9613 25.8633 66.8621 25.9884 66.7676 26.1147C66.673 26.241 66.5791 26.4029 66.4858 26.6003C66.4354 26.6374 66.3957 26.6722 66.3668 26.7049C66.3472 26.7401 66.3217 26.7788 66.2902 26.8209C66.2587 26.863 66.2212 26.9086 66.1777 26.9576C66.1462 26.9997 66.1019 27.0333 66.0446 27.0584C65.9506 27.296 65.8503 27.4815 65.7438 27.6147C65.6468 27.7505 65.5451 27.885 65.4386 28.0182C65.2521 28.2614 65.075 28.5072 64.9074 28.7555C64.7492 29.0063 64.6139 29.3037 64.5015 29.6476C64.5538 29.6414 64.5987 29.6433 64.6365 29.6534C64.6836 29.6661 64.7261 29.6775 64.7638 29.6876C64.8487 29.7103 64.944 29.751 65.0496 29.8096C65.373 29.7345 65.7036 29.7271 66.0413 29.7872C66.3885 29.8499 66.7284 29.9208 67.0611 29.9998C67.1931 30.0352 67.3252 30.0706 67.4573 30.106C67.5893 30.1414 67.7145 30.1648 67.8327 30.1762C67.905 30.2462 67.9493 30.2884 67.9656 30.3028C67.9939 30.3104 68.0316 30.3205 68.0788 30.3332C68.1448 30.3509 68.2002 30.3708 68.2448 30.3928C68.3302 30.5269 68.4185 30.6314 68.5096 30.7064C68.6007 30.7814 68.6978 30.8529 68.8009 30.921C68.8945 30.9865 68.9822 31.0555 69.0639 31.1279C69.1576 31.1934 69.2414 31.2766 69.3156 31.3773L69.2516 32.0123C69.2949 32.1149 69.308 32.1791 69.291 32.2048C69.2707 32.2803 69.2367 32.3318 69.1889 32.3594L69.1755 32.5227C69.0264 32.5131 68.9185 32.5195 68.8518 32.5421C68.7945 32.5672 68.736 32.597 68.6762 32.6315C68.5982 32.6207 68.5403 32.6103 68.5026 32.6002C68.4743 32.5926 68.446 32.585 68.4177 32.5774C68.2856 32.5421 68.119 32.5227 67.9177 32.5193C67.6857 32.3661 67.433 32.2529 67.1594 32.1796C67.0557 32.1518 66.9459 32.1275 66.8302 32.1066C66.7145 32.0857 66.5988 32.0648 66.483 32.0439C66.3648 32.0324 66.2431 32.015 66.1179 31.9915C66.0022 31.9706 65.883 31.9438 65.7604 31.9109L65.4122 31.9086ZM73.1377 33.9787C72.8509 33.9928 72.5404 34.0006 72.2064 34.0021C71.8724 34.0036 71.5497 33.9626 71.2384 33.8792C70.7668 33.7528 70.4258 33.5351 70.2154 33.2259C70.196 33.1095 70.1726 33.0274 70.1449 32.9796C70.1267 32.9343 70.1086 32.889 70.0904 32.8436C70.0841 32.7914 70.0864 32.7263 70.0972 32.6483C70.0194 32.4859 69.9702 32.311 69.9497 32.1235C69.9317 31.9266 69.9325 31.7347 69.9523 31.5479C69.984 31.3542 70.0298 31.1643 70.0898 30.9782C70.1592 30.7946 70.2402 30.6242 70.3329 30.467C70.3619 30.4344 70.3814 30.3992 70.3915 30.3614C70.4111 30.3262 70.4319 30.2863 70.4539 30.2417C70.5321 30.1008 70.609 29.9647 70.6847 29.8334C70.7697 29.7045 70.8639 29.5983 70.9672 29.5148C70.9522 29.4198 70.9775 29.3254 71.043 29.2318C71.1085 29.1381 71.1763 29.0552 71.2462 28.9829C71.4743 28.6599 71.6636 28.3871 71.8142 28.1646C71.9768 27.9351 72.1381 27.7105 72.2982 27.4905C72.5723 27.109 72.8357 26.7296 73.0884 26.3525C73.3411 25.9754 73.5885 25.5614 73.8306 25.1107C73.9187 25.0837 73.9841 25.0659 74.0269 25.0571C74.0886 25.0534 74.1395 25.0519 74.1798 25.0526C74.3268 25.183 74.5022 25.321 74.7058 25.4665C74.912 25.6026 75.0905 25.6909 75.2414 25.7314C75.3043 25.7988 75.3413 25.8491 75.3526 25.8825C75.3664 25.9064 75.3802 25.9303 75.394 25.9542C75.4649 26.1047 75.5204 26.256 75.5605 26.4083C75.6031 26.5512 75.5825 26.7225 75.4986 26.9225C75.4192 26.9922 75.3654 27.0233 75.3371 27.0157C75.2394 27.1917 75.1445 27.3382 75.0526 27.4551C74.97 27.5745 74.8827 27.6927 74.7908 27.8096C74.6868 27.9334 74.5876 28.0584 74.4931 28.1848C74.3986 28.3111 74.3046 28.473 74.2113 28.6704C74.1609 28.7074 74.1213 28.7423 74.0923 28.775C74.0727 28.8102 74.0472 28.8488 74.0157 28.8909C73.9842 28.933 73.9467 28.9786 73.9033 29.0276C73.8718 29.0697 73.8274 29.1033 73.7701 29.1284C73.6761 29.3661 73.5758 29.5515 73.4694 29.6848C73.3723 29.8205 73.2706 29.955 73.1641 30.0883C72.9776 30.3315 72.8006 30.5772 72.6329 30.8255C72.4747 31.0763 72.3394 31.3737 72.2271 31.7177C72.2793 31.7114 72.3243 31.7134 72.362 31.7235C72.4092 31.7361 72.4516 31.7475 72.4893 31.7576C72.5742 31.7804 72.6695 31.8211 72.7751 31.8797C73.0985 31.8046 73.4291 31.7971 73.7668 31.8573C74.114 31.92 74.4539 31.9908 74.7866 32.0699C74.9187 32.1052 75.0507 32.1406 75.1828 32.176C75.3148 32.2114 75.44 32.2348 75.5582 32.2463C75.6305 32.3162 75.6748 32.3584 75.6911 32.3729C75.7194 32.3805 75.7572 32.3906 75.8043 32.4032C75.8704 32.4209 75.9257 32.4408 75.9703 32.4629C76.0557 32.597 76.144 32.7015 76.2351 32.7765C76.3262 32.8514 76.4233 32.9229 76.5264 32.991C76.6201 33.0565 76.7077 33.1255 76.7894 33.198C76.8831 33.2635 76.967 33.3466 77.0411 33.4474L76.9771 34.0823C77.0204 34.1849 77.0335 34.2491 77.0165 34.2749C76.9963 34.3503 76.9622 34.4019 76.9144 34.4295L76.901 34.5927C76.7519 34.5831 76.644 34.5896 76.5773 34.6121C76.52 34.6372 76.4615 34.6671 76.4017 34.7016C76.3237 34.6908 76.2659 34.6803 76.2281 34.6702C76.1998 34.6626 76.1715 34.6551 76.1432 34.6475C76.0112 34.6121 75.8445 34.5927 75.6432 34.5893C75.4113 34.4362 75.1585 34.323 74.885 34.2497C74.7812 34.2219 74.6714 34.1975 74.5557 34.1766C74.44 34.1557 74.3243 34.1348 74.2086 34.1139C74.0903 34.1025 73.9686 34.085 73.8435 34.0616C73.7277 34.0407 73.6086 34.0138 73.4859 33.981L73.1377 33.9787ZM82.1686 32.592C82.0874 32.6309 82.0119 32.6865 81.942 32.7588C81.8746 32.8216 81.8059 32.8891 81.736 32.9614C81.661 33.0525 81.5826 33.1376 81.5007 33.2168C81.4189 33.296 81.3254 33.3619 81.2203 33.4146C81.1352 33.5435 81.0577 33.644 80.9878 33.7163C80.9204 33.7791 80.8209 33.8485 80.6894 33.9245C80.4939 34.2765 80.1623 34.6274 79.6945 34.9773C79.6623 35.0596 79.6113 35.137 79.5414 35.2092C79.4834 35.2746 79.4207 35.3387 79.3534 35.4015C79.3269 35.4247 79.2992 35.4527 79.2702 35.4854C79.2438 35.5086 79.2233 35.5284 79.2088 35.5447L79.1426 35.6786C79.0752 35.7415 79.0056 35.7936 78.9339 35.835C78.8621 35.8765 78.7963 35.9144 78.7365 35.949C78.7101 35.9722 78.667 36.0011 78.6072 36.0356L78.3722 36.0636C77.7088 35.7848 77.3877 35.3045 77.4086 34.6226L77.4607 34.4849C77.4922 34.4428 77.519 34.3994 77.541 34.3548C77.5751 34.3032 77.6091 34.2517 77.6431 34.2001C77.7162 34.0782 77.7941 33.9575 77.8766 33.8381C77.9686 33.7212 78.0804 33.6248 78.2119 33.5488C78.2485 33.4878 78.3188 33.3954 78.4227 33.2716C78.5292 33.1384 78.7018 32.9471 78.9405 32.6976C79.1332 32.5066 79.285 32.3552 79.3958 32.2433C79.5067 32.1315 79.5958 32.0442 79.6632 31.9813C79.6093 31.8051 79.5327 31.638 79.4335 31.48C79.3741 31.2113 79.3263 30.9559 79.2901 30.7137C79.2633 30.4739 79.2491 30.2629 79.2474 30.0805C79.2709 29.9553 79.2845 29.8477 79.2884 29.7578C79.2923 29.6678 79.2974 29.5732 79.3038 29.4738C79.3033 29.3624 79.3076 29.2524 79.3165 29.1436C79.3254 29.0347 79.3451 28.9237 79.3754 28.8105C79.3459 28.7319 79.3353 28.6583 79.3436 28.5897L79.4098 28.4558C79.4558 28.3973 79.4832 28.3137 79.4922 28.2049C79.5037 28.0866 79.5104 27.9671 79.5124 27.8464C79.5188 27.747 79.5231 27.6369 79.5251 27.5161C79.5366 27.3979 79.5622 27.2834 79.6019 27.1727C79.6417 27.0621 79.6978 26.9659 79.7702 26.8842C79.8546 26.7956 79.9683 26.73 80.1111 26.6874L80.3554 26.7377C80.4277 26.8076 80.4952 26.8763 80.5581 26.9436C80.6328 27.0041 80.7017 27.0681 80.7645 27.1354C80.8556 27.2104 80.942 27.2841 81.0237 27.3565C81.1054 27.429 81.188 27.5168 81.2716 27.6201L81.3175 27.8447L81.4598 28.0497L81.4181 28.2053C81.4174 28.2456 81.4082 28.2987 81.3905 28.3647C81.3576 28.4874 81.3563 28.5679 81.3864 28.6063L81.3975 28.7913C81.3621 28.9233 81.3422 29.0544 81.3376 29.1847C81.3356 29.3054 81.3348 29.4215 81.3353 29.5328C81.3358 29.6442 81.335 29.7602 81.333 29.881C81.331 30.0018 81.3028 30.1257 81.2486 30.2527C81.3128 30.2396 81.3688 30.2192 81.4166 30.1916C81.4405 30.1778 81.4632 30.1687 81.4846 30.1643C81.506 30.1599 81.5286 30.1508 81.5526 30.137L82.6907 29.2287L82.7003 29.0797L83.0732 28.8763C83.1689 28.8211 83.2586 28.7693 83.3424 28.7209C83.4355 28.6751 83.5158 28.6208 83.5832 28.558L83.7691 28.4865C84.1974 28.0957 84.7049 27.9183 85.2918 27.9542L85.4975 27.979L85.5048 28.1781C85.5147 28.292 85.5649 28.4065 85.6553 28.5218C85.7552 28.6395 85.8611 28.7538 85.9729 28.8647L86.0775 28.9837C86.0994 29.0907 86.104 29.1677 86.0914 29.2149C86.0787 29.262 86.0627 29.3032 86.0431 29.3384L86.0618 29.4951C85.9257 29.7013 85.7871 29.8411 85.6461 29.9145C85.5146 29.9905 85.3855 30.057 85.259 30.1141C85.1539 30.1668 85.0548 30.216 84.9616 30.2619C84.8804 30.3008 84.8083 30.3623 84.7453 30.4465L84.6159 30.5332C84.3875 30.5933 84.2197 30.7101 84.1126 30.8836L84.0246 31.042L83.8548 30.9965C83.8454 30.994 83.8168 31.0066 83.7689 31.0342C83.733 31.0549 83.6644 31.1224 83.563 31.2368C83.4717 31.3134 83.4081 31.3621 83.3722 31.3828C83.3363 31.4035 83.3064 31.4208 83.2825 31.4346C83.2629 31.4698 83.2387 31.5038 83.2097 31.5364C83.1927 31.5622 83.1684 31.5961 83.1369 31.6383C82.9815 31.728 82.8807 31.8021 82.8347 31.8606C82.7913 31.9096 82.7406 31.9668 82.6826 32.0321C82.6246 32.0975 82.5667 32.1628 82.5087 32.2282C82.4628 32.2866 82.3919 32.3435 82.2962 32.3987L82.1686 32.592ZM97.6859 33.4287C97.4501 33.3655 97.1903 33.3161 96.9067 33.2805C96.6255 33.2355 96.3478 33.1965 96.0736 33.1635C95.8774 33.1412 95.6871 33.1155 95.5028 33.0864C95.328 33.0597 95.1685 33.0322 95.0245 33.0037C94.9029 33.1935 94.7876 33.3598 94.6786 33.5025C94.5696 33.6451 94.4571 33.7818 94.3412 33.9125C94.2228 34.0526 94.1078 34.1988 93.9963 34.3509C93.8967 34.4961 93.7934 34.6554 93.6862 34.8289C93.5515 34.9545 93.4334 35.0746 93.3319 35.1889C93.2425 35.2964 93.1574 35.4252 93.0767 35.5755C92.9256 35.6866 92.8003 35.8148 92.7007 35.96C92.6037 36.0958 92.5258 36.2165 92.4672 36.3221L92.3651 36.4767C92.2933 36.5181 92.2477 36.5565 92.2282 36.5917C92.2111 36.6174 92.18 36.6394 92.1347 36.6576C92.0974 36.7588 92.0366 36.8537 91.9522 36.9423C91.9207 36.9845 91.8939 37.0278 91.8718 37.0725C91.8523 37.1077 91.84 37.1347 91.8349 37.1536C91.8097 37.2479 91.7697 37.3029 91.7149 37.3186C91.7117 37.3682 91.6978 37.4201 91.6732 37.4742C91.6511 37.5188 91.6291 37.5635 91.607 37.6081C91.5484 37.7137 91.5149 37.8008 91.5067 37.8694C91.5249 37.9147 91.5396 37.954 91.5509 37.9874C91.5716 38.0232 91.5803 38.066 91.5771 38.1157C91.6236 38.1686 91.6598 38.2036 91.6855 38.2206C91.7157 38.259 91.7634 38.3072 91.8288 38.3651L91.9182 38.5407C91.8921 38.8269 91.7915 39.0325 91.6165 39.1575C91.427 39.2988 91.1624 39.324 90.8228 39.233L90.653 39.1875C90.6185 39.1277 90.6003 39.0824 90.5985 39.0515C90.5306 39.003 90.4756 38.963 90.4335 38.9315C90.3914 38.9 90.359 38.8509 90.3365 38.7842C90.229 38.6947 90.1426 38.621 90.0772 38.5631L89.9689 38.4582C89.9967 38.3544 90.0118 38.2978 90.0143 38.2884C89.9711 38.1858 89.9445 38.0776 89.9345 37.9637C89.934 37.8524 89.9383 37.7423 89.9472 37.6335C89.9511 37.5435 89.949 37.457 89.9409 37.374C89.9423 37.2935 89.9316 37.2199 89.9091 37.1532C90.0368 36.601 90.2125 36.1527 90.4363 35.8082C90.66 35.4638 90.8847 35.1347 91.1102 34.8211C91.2362 34.6527 91.3623 34.4842 91.4883 34.3158C91.6168 34.1379 91.7372 33.9528 91.8494 33.7604L92.0146 33.6531C92.1211 33.5198 92.2059 33.4111 92.2689 33.3269C92.3438 33.2358 92.4188 33.1446 92.4938 33.0535C92.5398 32.9951 92.5798 32.9401 92.6138 32.8885C92.6598 32.8301 92.6985 32.7798 92.73 32.7377C92.6734 32.7225 92.6203 32.7133 92.5706 32.7101C92.5234 32.6975 92.475 32.6896 92.4253 32.6864C92.3662 32.6806 92.3118 32.6762 92.2621 32.673C92.2149 32.6603 92.1678 32.6477 92.1206 32.6351C92.0546 32.6174 92.0087 32.6 91.9829 32.583C91.8665 32.6024 91.747 32.5956 91.6244 32.5628L91.4829 32.5248C91.4546 32.5173 91.4263 32.5097 91.398 32.5021C91.3816 32.4876 91.364 32.4778 91.3452 32.4728C91.2508 32.4475 91.1716 32.4414 91.1074 32.4546C90.9942 32.4242 90.8857 32.3952 90.782 32.3674L90.6405 32.3295C90.6216 32.3244 90.5968 32.3228 90.5659 32.3246C90.5376 32.3171 90.5141 32.3107 90.4952 32.3057C90.4292 32.288 90.3597 32.2643 90.2867 32.2347C90.2163 32.1956 90.145 32.1411 90.0727 32.0712C90 31.8899 89.946 31.7895 89.9108 31.77L89.829 31.5661C89.8347 31.5069 89.8344 31.4513 89.8282 31.399C89.8245 31.3374 89.8221 31.271 89.8209 31.1999C89.8084 31.0955 89.7973 30.9863 89.7873 30.8725C89.7894 30.7517 89.8106 30.6158 89.851 30.4649C89.8807 30.392 89.9147 30.3404 89.9531 30.3103C89.9915 30.2801 90.024 30.2534 90.0504 30.2302L90.1497 30.0293L90.3299 30.0928L90.7261 30.1989C91.0279 30.2798 91.337 30.3525 91.6533 30.4171C91.9722 30.4722 92.3005 30.5298 92.6382 30.59C92.832 30.6217 93.0257 30.6533 93.2194 30.685C93.4225 30.7192 93.6304 30.7547 93.843 30.7915C93.9035 30.7167 93.9627 30.6466 94.0206 30.5813L94.1811 30.5484C94.3534 30.5845 94.465 30.6397 94.5158 30.7139C94.5787 30.7813 94.6273 30.8449 94.6619 30.9047C94.8745 30.9415 95.087 30.9782 95.2996 31.0149C95.5241 31.0448 95.7499 31.0699 95.977 31.0903C96.3104 31.1291 96.6425 31.1726 96.9733 31.2208C97.3135 31.2715 97.6346 31.3373 97.9365 31.4182C98.0685 31.4536 98.1946 31.4924 98.3147 31.5347C98.4348 31.577 98.5442 31.6215 98.6429 31.6681L98.7579 31.8051C98.771 31.8693 98.7948 31.9313 98.8294 31.9911C98.8733 32.0534 98.9173 32.1157 98.9612 32.1781C99.0466 32.3122 99.127 32.4651 99.2022 32.6369C99.2775 32.8088 99.2644 33.0277 99.1628 33.2936C99.057 33.3866 98.9827 33.4375 98.9399 33.4462L98.7671 33.5819L98.6294 33.5298C98.5728 33.5147 98.5183 33.5102 98.4661 33.5164C98.4164 33.5132 98.3655 33.5147 98.3133 33.521C98.2705 33.5297 98.2277 33.5385 98.1849 33.5472C98.1446 33.5465 98.0997 33.5446 98.05 33.5414C97.9651 33.5187 97.8943 33.4997 97.8377 33.4845C97.7931 33.4625 97.7425 33.4438 97.6859 33.4287ZM102.371 40.5074C102.324 40.7577 102.241 40.953 102.123 41.0931C102.004 41.2332 101.864 41.3422 101.702 41.42C101.539 41.4978 101.364 41.547 101.177 41.5675C100.989 41.5881 100.808 41.6052 100.632 41.6188C100.57 41.5514 100.507 41.484 100.444 41.4166C100.393 41.3423 100.324 41.2784 100.237 41.2248C100.175 40.9656 100.111 40.7359 100.043 40.5358C99.9778 40.3262 99.9802 40.1095 100.05 39.8857C100.053 39.8762 100.071 39.8256 100.106 39.7338C100.15 39.6445 100.197 39.5458 100.246 39.4377C100.305 39.3321 100.351 39.2334 100.386 39.1416C100.433 39.0429 100.457 38.9888 100.46 38.9794C100.238 38.9401 99.999 38.9266 99.7429 38.9389C99.4869 38.9511 99.2318 38.9788 98.9776 39.0219C98.7328 39.0676 98.4975 39.1157 98.2716 39.1664C98.0551 39.2196 97.8755 39.2675 97.7326 39.3101C97.725 39.3384 97.6872 39.4041 97.6192 39.5072C97.5536 39.6009 97.4761 39.7014 97.3867 39.8089C97.2998 39.9069 97.2106 39.9942 97.1193 40.0709C97.028 40.1475 96.9494 40.177 96.8833 40.1593C96.8852 40.1901 96.8917 40.2222 96.903 40.2556C96.9143 40.2889 96.9042 40.3266 96.8727 40.3687C96.7305 40.3711 96.6 40.3867 96.4811 40.4155C96.3596 40.4537 96.2372 40.4765 96.1139 40.4839C95.9881 40.5007 95.8591 40.4915 95.7271 40.4561C95.595 40.4207 95.452 40.3318 95.2981 40.1895C95.3132 40.1329 95.3023 40.0794 95.2652 40.029C95.2307 39.9692 95.1889 39.9176 95.1399 39.8741C95.1029 39.8238 95.068 39.7841 95.0353 39.7551C95.0052 39.7167 94.9926 39.6881 94.9977 39.6692C94.948 39.666 94.938 39.6279 94.9676 39.555C94.9973 39.482 95.0401 39.4733 95.096 39.5287C95.0276 39.3689 94.9919 39.238 94.9889 39.1361C94.9978 39.0272 94.9801 38.886 94.9356 38.7123C94.9595 38.6985 94.9872 38.6705 95.0187 38.6284C95.0408 38.5838 95.0616 38.5439 95.0812 38.5087C95.1007 38.4735 95.1224 38.449 95.1464 38.4352C95.1703 38.4213 95.1926 38.4324 95.2133 38.4683C95.2172 38.3783 95.2361 38.3076 95.2702 38.256C95.3042 38.2045 95.337 38.1577 95.3685 38.1155C95.4 38.0734 95.4268 38.0301 95.4488 37.9854C95.4709 37.9408 95.4707 37.8851 95.4481 37.8184C95.6546 37.6513 95.8131 37.4562 95.9234 37.233C96.0363 37.0004 96.124 36.7863 96.1865 36.5907C96.2702 36.5424 96.3521 36.4632 96.4321 36.3532C96.5216 36.2458 96.5969 36.1345 96.658 36.0195C96.7217 35.895 96.764 35.7749 96.7849 35.6592C96.8178 35.5366 96.8302 35.4337 96.8221 35.3507C96.8442 35.306 96.8998 35.3058 96.9891 35.3499C97.1291 35.0538 97.2604 34.7149 97.3829 34.3332C97.5173 33.9446 97.6596 33.5834 97.8097 33.2495C97.9624 32.9063 98.1401 32.6202 98.3429 32.3915C98.5483 32.1533 98.8085 32.031 99.1237 32.0244C99.1272 32.2377 99.1512 32.4312 99.1957 32.6048C99.2496 32.781 99.3094 32.9538 99.3753 33.1231C99.4531 33.2855 99.5249 33.4513 99.5908 33.6206C99.666 33.7924 99.7268 33.9806 99.7731 34.1851C99.7157 34.3618 99.6412 34.5643 99.5497 34.7925C99.4582 35.0207 99.3561 35.2512 99.2432 35.4838C99.1397 35.7189 99.0341 35.9434 98.9263 36.1571C98.8279 36.3734 98.7383 36.5567 98.6576 36.7069C98.6544 36.7566 98.6704 36.7912 98.7056 36.8108C98.7503 36.8328 98.7483 36.8778 98.6998 36.9457C98.9414 36.9498 99.1911 36.9611 99.449 36.9796C99.7069 36.9982 99.966 37.012 100.226 37.0211C100.487 37.0303 100.739 37.0321 100.983 37.0268C101.239 37.0145 101.48 36.983 101.706 36.9323C101.852 36.5771 102.012 36.2256 102.186 35.878C102.36 35.5303 102.47 35.1555 102.517 34.7536C102.575 34.7285 102.625 34.6915 102.668 34.6424C102.712 34.5934 102.769 34.5683 102.84 34.5672C102.841 34.3753 102.873 34.1816 102.935 33.986C102.998 33.7905 103.081 33.6106 103.186 33.4466C103.3 33.2851 103.43 33.1581 103.576 33.0658C103.734 32.9666 103.903 32.9209 104.083 32.9287C104.146 33.1074 104.192 33.2965 104.219 33.4959C104.249 33.686 104.278 33.8807 104.305 34.0801C104.345 34.2727 104.385 34.4605 104.427 34.6436C104.481 34.8198 104.564 34.9835 104.675 35.1346C104.63 35.4157 104.573 35.7037 104.504 35.9987C104.445 36.2962 104.379 36.5971 104.308 36.9015C104.136 37.2397 103.958 37.566 103.772 37.8803C103.599 38.1877 103.443 38.525 103.304 38.8922C103.218 38.9499 103.143 39.0209 103.08 39.1052C103.017 39.1894 102.953 39.2783 102.887 39.372C102.824 39.4562 102.757 39.5391 102.684 39.6208C102.614 39.6931 102.537 39.7534 102.454 39.8017C102.461 39.925 102.437 40.0348 102.381 40.131C102.337 40.2202 102.333 40.3457 102.371 40.5074ZM113.221 36.3479C113.213 36.4164 113.199 36.4683 113.18 36.5035C113.172 36.5318 113.16 36.5588 113.143 36.5846C113.135 36.6129 113.126 36.6459 113.116 36.6837C113.109 36.712 113.105 36.7616 113.107 36.8327C112.823 37.1004 112.532 37.2601 112.235 37.312C111.95 37.3569 111.649 37.3673 111.332 37.343C111.018 37.3093 110.692 37.2777 110.357 37.2484C110.03 37.2216 109.686 37.2608 109.324 37.3661C109.214 37.286 109.101 37.2557 108.985 37.2751C108.878 37.297 108.732 37.2732 108.549 37.2038C108.477 37.2452 108.395 37.2687 108.302 37.2742C108.212 37.2704 108.121 37.2712 108.029 37.2767C108.044 37.3718 108.034 37.4652 107.999 37.557C107.976 37.6419 107.972 37.7164 107.985 37.7806C108.307 37.8973 108.672 37.9899 109.078 38.0584C109.494 38.1293 109.896 38.2119 110.285 38.3061C110.282 38.3558 110.269 38.3875 110.245 38.4013C110.223 38.4057 110.212 38.428 110.212 38.4683C110.265 38.5331 110.315 38.6121 110.36 38.7053C110.409 38.789 110.457 38.8727 110.505 38.9565C110.554 39.0402 110.605 39.1145 110.658 39.1793C110.723 39.2373 110.805 39.2742 110.901 39.29C110.919 39.3756 110.92 39.4668 110.904 39.5637C110.9 39.6536 110.867 39.7407 110.804 39.8249C110.625 39.8883 110.445 39.9563 110.264 40.029C110.085 40.0924 109.899 40.1437 109.707 40.1831C109.524 40.2251 109.33 40.249 109.126 40.2551C108.934 40.2542 108.727 40.2188 108.503 40.1487C108.456 40.136 108.418 40.1259 108.39 40.1183C108.371 40.1133 108.346 40.0915 108.316 40.0531C108.228 40.0801 108.116 40.0652 107.979 40.0084C107.852 39.9541 107.745 39.9405 107.657 39.9674C107.565 39.8925 107.443 39.8395 107.29 39.8085C107.148 39.7705 107.026 39.7176 106.923 39.6495C106.719 39.8071 106.525 39.9827 106.342 40.1763C106.159 40.3698 105.986 40.5813 105.823 40.8107C106.131 40.9438 106.39 41.0334 106.6 41.0796C106.82 41.1283 107.026 41.1685 107.22 41.2002C107.416 41.2224 107.616 41.2507 107.819 41.2849C108.025 41.3096 108.277 41.3672 108.577 41.4575C108.793 41.4043 109.032 41.3977 109.295 41.4376C109.569 41.4706 109.825 41.4785 110.062 41.4612C110.13 41.5097 110.182 41.5793 110.218 41.6699C110.257 41.7511 110.291 41.831 110.321 41.9097C110.362 41.9814 110.405 42.0485 110.449 42.1108C110.493 42.1732 110.559 42.211 110.646 42.2243C110.674 42.2721 110.685 42.3256 110.679 42.3847C110.685 42.437 110.687 42.4879 110.683 42.5376C110.68 42.5873 110.683 42.6335 110.692 42.6763C110.712 42.7122 110.752 42.733 110.811 42.7387C110.586 43.0121 110.357 43.2084 110.123 43.3277C109.901 43.44 109.66 43.507 109.402 43.5287C109.143 43.5504 108.861 43.5457 108.556 43.5145C108.261 43.4858 107.929 43.4578 107.563 43.4303C107.473 43.4264 107.403 43.4027 107.354 43.3593C107.303 43.3252 107.239 43.2981 107.164 43.2779C106.934 43.2669 106.663 43.2399 106.351 43.1967C106.039 43.1536 105.729 43.0856 105.42 42.9927C105.112 42.8999 104.826 42.7778 104.563 42.6265C104.298 42.4847 104.1 42.3001 103.968 42.0729C103.911 41.9866 103.879 41.8973 103.873 41.8048C103.88 41.7054 103.837 41.6182 103.746 41.5433C103.77 41.4181 103.787 41.2763 103.8 41.1178C103.812 40.9592 103.825 40.796 103.84 40.6281C103.857 40.4507 103.878 40.2793 103.902 40.1139C103.935 39.951 103.984 39.8073 104.048 39.6829C104.114 39.5489 104.205 39.4368 104.32 39.3463C104.444 39.2584 104.51 39.1446 104.517 39.005C104.567 39.0082 104.602 38.9922 104.621 38.957C104.643 38.9123 104.686 38.9036 104.75 38.9307C104.852 38.7761 104.956 38.6322 105.062 38.4989C105.169 38.3657 105.274 38.2372 105.378 38.1134C105.491 37.9921 105.6 37.8696 105.704 37.7458C105.82 37.6151 105.935 37.4689 106.049 37.3074C105.95 37.1494 105.886 36.9908 105.858 36.8316C105.842 36.6655 105.839 36.5079 105.848 36.3589C105.86 36.2003 105.877 36.0431 105.899 35.8871C105.923 35.7217 105.933 35.5525 105.929 35.3795C106.061 35.2633 106.204 35.1804 106.359 35.1309C106.526 35.0745 106.697 35.0395 106.873 35.0258C107.048 35.0122 107.235 35.0118 107.434 35.0246C107.633 35.0375 107.842 35.0481 108.062 35.0565C108.473 35.035 108.833 35.0304 109.143 35.0427C109.462 35.0576 109.769 35.084 110.062 35.1221C110.367 35.1533 110.68 35.1918 111.002 35.2374C111.323 35.2831 111.692 35.3213 112.108 35.352C112.17 35.4596 112.239 35.5236 112.315 35.5438C112.375 35.469 112.424 35.4568 112.461 35.5072C112.51 35.5506 112.541 35.5286 112.554 35.4412C112.606 35.6269 112.687 35.7952 112.798 35.9463C112.921 36.0905 113.062 36.2244 113.221 36.3479ZM117.008 42.3064C117.036 42.2027 117.076 42.1122 117.127 42.0348C117.178 41.9575 117.212 41.8503 117.228 41.7132C117.687 41.169 118.172 40.682 118.681 40.2524C119.202 39.8158 119.777 39.4642 120.404 39.1976C120.507 39.1543 120.591 39.106 120.656 39.0526C120.732 38.9923 120.803 38.9355 120.868 38.8821C120.942 38.8312 121.019 38.791 121.098 38.7616C121.179 38.7227 121.274 38.7077 121.383 38.7166C121.692 38.5062 122.042 38.3321 122.432 38.1942C122.823 38.0562 123.226 37.9315 123.64 37.8201C124.054 37.7086 124.469 37.5924 124.886 37.4715C125.312 37.3531 125.705 37.2057 126.066 37.0294C126.152 37.1232 126.226 37.1683 126.287 37.1646C126.361 37.154 126.428 37.167 126.489 37.2035C126.526 37.4055 126.6 37.5619 126.712 37.6728C126.836 37.7767 126.959 37.8854 127.08 37.9988C127.213 38.1052 127.327 38.2268 127.422 38.3634C127.529 38.4931 127.592 38.6517 127.613 38.8392C127.547 38.8215 127.508 38.8362 127.495 38.8834C127.492 38.9331 127.492 38.9888 127.496 39.0504C127.499 39.1121 127.495 39.1665 127.482 39.2136C127.47 39.2608 127.421 39.273 127.336 39.2503C127.318 39.3163 127.342 39.3582 127.408 39.3758C127.474 39.3935 127.499 39.4354 127.481 39.5014C127.466 39.558 127.439 39.6014 127.401 39.6315C127.374 39.6548 127.36 39.7067 127.359 39.7872C127.092 39.8775 126.798 39.9554 126.477 40.0211C126.168 40.0798 125.838 40.143 125.486 40.2105C125.144 40.2806 124.788 40.3622 124.42 40.4555C124.063 40.5419 123.699 40.6566 123.327 40.7996C122.955 40.9425 122.572 41.1078 122.178 41.2954C121.793 41.4856 121.413 41.6971 121.037 41.9301C120.664 42.1536 120.306 42.3963 119.962 42.6582C119.622 42.9106 119.32 43.1685 119.058 43.4318C119.064 43.484 119.076 43.5328 119.094 43.5781C119.122 43.6259 119.139 43.6759 119.145 43.7282C119.498 43.8431 119.833 43.9328 120.15 43.9973C120.468 44.0525 120.775 44.1547 121.068 44.3042C121.114 44.286 121.147 44.2546 121.169 44.2099C121.191 44.1653 121.229 44.1399 121.281 44.1336C121.94 44.2395 122.567 44.2962 123.161 44.3038C123.758 44.302 124.365 44.3028 124.98 44.306C124.828 44.1945 124.691 44.1022 124.569 44.0291C124.528 43.9573 124.54 43.9101 124.607 43.8876C124.686 43.8581 124.75 43.8248 124.801 43.7878C124.673 43.6624 124.576 43.5151 124.51 43.3458C124.453 43.1791 124.446 42.98 124.488 42.7485C124.569 42.7096 124.62 42.6524 124.64 42.577C124.66 42.5015 124.644 42.4313 124.59 42.3665C124.548 42.335 124.52 42.3274 124.505 42.3437C124.491 42.3601 124.476 42.3764 124.462 42.3927C124.457 42.4116 124.442 42.4279 124.418 42.4418C124.404 42.4581 124.38 42.4518 124.348 42.4228C124.385 42.3216 124.431 42.243 124.487 42.1871C124.542 42.1312 124.592 42.0586 124.636 41.9693L126.019 41.5057C126.116 41.6329 126.241 41.7724 126.392 41.9242C126.543 42.076 126.704 42.2303 126.875 42.3871C127.045 42.544 127.219 42.7068 127.396 42.8756C127.575 43.035 127.741 43.1905 127.892 43.3423C128.042 43.4633 128.163 43.5968 128.255 43.7428C128.35 43.8795 128.438 44.0243 128.518 44.1772C128.601 44.3207 128.684 44.4643 128.767 44.6078C128.849 44.7513 128.961 44.8823 129.101 45.0007C129.042 45.1466 129.018 45.2717 129.031 45.3762C129.043 45.4806 129.022 45.5963 128.968 45.7233C128.703 45.996 128.413 46.2115 128.097 46.3696C127.785 46.5183 127.446 46.6299 127.083 46.7043C126.728 46.7813 126.357 46.8283 125.968 46.8455C125.582 46.8532 125.186 46.8584 124.781 46.861C124.378 46.8543 123.969 46.8556 123.552 46.8652C123.146 46.8679 122.741 46.8907 122.335 46.9336C122.175 46.8906 122.037 46.8587 121.921 46.8378C121.805 46.8169 121.693 46.802 121.584 46.793C121.475 46.7841 121.367 46.7752 121.258 46.7662C121.149 46.7573 121.032 46.7411 120.907 46.7177C120.862 46.6956 120.827 46.6962 120.8 46.7194C120.783 46.7452 120.758 46.7637 120.725 46.775C120.528 46.7528 120.355 46.7214 120.204 46.681C120.053 46.6405 119.926 46.6064 119.822 46.5786C119.69 46.5432 119.548 46.5254 119.396 46.5253C119.245 46.5251 119.109 46.5038 118.989 46.4616C118.15 46.1963 117.566 45.7163 117.236 45.0214C116.907 44.3266 116.851 43.4776 117.07 42.4745C117.092 42.4298 117.09 42.399 117.064 42.382C117.041 42.3556 117.022 42.3304 117.008 42.3064ZM130.086 48.3431C130.057 48.6388 129.979 48.8554 129.851 48.993C129.733 49.1331 129.588 49.2207 129.417 49.2557C129.253 49.3027 129.075 49.3057 128.884 49.2645C128.693 49.2234 128.516 49.166 128.354 49.0922C128.295 48.9348 128.254 48.747 128.232 48.5287C128.209 48.3104 128.193 48.0886 128.182 47.8634C128.175 47.6288 128.17 47.4001 128.169 47.1774C128.178 46.9572 128.184 46.7619 128.19 46.5915C128.267 46.4909 128.33 46.3711 128.377 46.2322C128.436 46.0863 128.486 45.9379 128.526 45.787C128.576 45.6386 128.621 45.4889 128.662 45.338C128.714 45.1802 128.769 45.033 128.826 44.8966C128.998 44.5181 129.193 44.1661 129.412 43.8405C129.64 43.5174 129.844 43.1726 130.023 42.8061C130.064 42.7262 130.076 42.6435 130.059 42.558C130.051 42.4749 130.065 42.4029 130.102 42.3419C130.121 42.3067 130.156 42.2907 130.206 42.2939C130.258 42.2877 130.295 42.2623 130.317 42.2176C130.373 42.1215 130.401 42.0378 130.399 41.9667C130.408 41.8982 130.448 41.8231 130.52 41.7414C130.588 41.6785 130.673 41.5852 130.777 41.4614C130.893 41.3307 130.963 41.1827 130.987 41.0173C131.087 40.9834 131.185 40.9389 131.281 40.8836C131.377 40.8284 131.47 40.7826 131.56 40.7462C131.663 40.7029 131.768 40.6703 131.875 40.6484C131.991 40.6291 132.12 40.6383 132.262 40.6763C132.312 40.7908 132.331 40.9072 132.32 41.0255C132.318 41.1462 132.311 41.2657 132.299 41.384C132.297 41.5048 132.306 41.6234 132.325 41.7398C132.347 41.8467 132.407 41.9437 132.505 42.0306C132.485 42.1061 132.46 42.2004 132.43 42.3136C132.399 42.4268 132.374 42.5412 132.353 42.657C132.334 42.7632 132.327 42.8673 132.33 42.9693C132.345 43.0643 132.386 43.136 132.454 43.1845C132.163 43.5918 131.882 43.9969 131.613 44.3998C131.352 44.8053 131.114 45.2217 130.899 45.6492C130.686 46.0673 130.504 46.4989 130.355 46.9441C130.215 47.3918 130.125 47.8582 130.086 48.3431ZM133.394 43.4669C133.514 43.2865 133.663 43.1445 133.842 43.0409C134.031 42.9398 134.223 42.8649 134.418 42.8161C134.625 42.7603 134.832 42.7247 135.038 42.7092C135.244 42.6938 135.439 42.6852 135.621 42.6835C136.042 42.6243 136.483 42.5808 136.945 42.553C137.42 42.5183 137.894 42.5038 138.367 42.5094C138.85 42.5175 139.332 42.5706 139.811 42.6687C140.293 42.7574 140.773 42.9467 141.251 43.2366C141.254 43.3385 141.272 43.4395 141.306 43.5396C141.34 43.6396 141.374 43.7397 141.408 43.8397C141.451 43.9423 141.485 44.0424 141.509 44.1399C141.536 44.228 141.543 44.3158 141.53 44.4032C141.601 44.5134 141.652 44.6279 141.68 44.7469C141.712 44.8563 141.687 44.9862 141.606 45.1365C141.492 45.1867 141.379 45.2321 141.266 45.2729C141.166 45.3067 141.058 45.3333 140.942 45.3527C140.616 45.1743 140.269 45.0512 139.903 44.9835C139.537 44.9157 139.21 44.8534 138.922 44.7964C138.86 44.6887 138.768 44.6185 138.645 44.5856C138.532 44.5553 138.404 44.5413 138.262 44.5437C138.129 44.5485 137.992 44.5521 137.85 44.5545C137.717 44.5594 137.596 44.5372 137.488 44.488C137.374 44.5382 137.242 44.5585 137.093 44.5489C136.956 44.5323 136.805 44.512 136.639 44.4879C136.617 44.5326 136.618 44.5681 136.641 44.5946C136.667 44.6116 136.664 44.6411 136.632 44.6833C136.671 44.7644 136.729 44.8306 136.807 44.8816C136.893 44.9352 136.98 44.9888 137.067 45.0423C137.163 45.0984 137.243 45.1602 137.305 45.2276C137.371 45.2855 137.405 45.3654 137.408 45.4674C137.549 45.5053 137.663 45.5711 137.749 45.665C137.835 45.7588 137.899 45.8617 137.939 45.9738C137.98 46.0858 138 46.2022 137.998 46.323C138.008 46.4368 138.001 46.5362 137.978 46.6211C137.986 46.7042 138.011 46.746 138.051 46.7467C138.091 46.7474 138.129 46.7776 138.163 46.8374C138.158 46.9676 138.195 47.1139 138.273 47.2763C138.353 47.4293 138.406 47.5901 138.432 47.7587C138.387 47.9996 138.345 48.2156 138.304 48.4068C138.265 48.5885 138.183 48.7636 138.057 48.9321C137.822 49.2432 137.54 49.5014 137.212 49.7067C136.894 49.9145 136.545 50.0839 136.166 50.215C135.799 50.3391 135.416 50.4286 135.017 50.4835C134.619 50.5383 134.235 50.5722 133.868 50.5849C133.833 50.5654 133.795 50.5553 133.755 50.5546C133.715 50.5539 133.711 50.5278 133.746 50.4763C133.652 50.5221 133.556 50.5418 133.457 50.5354C133.367 50.5315 133.271 50.5109 133.17 50.4737C133.066 50.4459 132.959 50.4121 132.848 50.3723C132.747 50.3351 132.647 50.3133 132.547 50.3069C132.499 50.2232 132.455 50.1407 132.416 50.0595C132.384 49.9903 132.367 49.9047 132.364 49.8028C132.317 49.7901 132.3 49.7602 132.312 49.7131C132.334 49.6684 132.326 49.6411 132.289 49.631C132.371 49.5518 132.408 49.5062 132.401 49.4943C132.406 49.4754 132.396 49.4575 132.37 49.4404C132.354 49.426 132.337 49.4115 132.321 49.397C132.307 49.3731 132.309 49.3482 132.326 49.3224C132.384 49.2571 132.421 49.176 132.437 49.0791C132.455 48.9728 132.473 48.8666 132.492 48.7603C132.51 48.654 132.541 48.5562 132.585 48.4669C132.639 48.3802 132.73 48.3237 132.858 48.2974C133.169 48.4211 133.473 48.4925 133.771 48.5117C134.082 48.5241 134.379 48.5078 134.664 48.4628C134.949 48.4179 135.223 48.3597 135.484 48.2883C135.756 48.2194 136.018 48.1634 136.272 48.1203C136.323 48.043 136.38 47.9824 136.442 47.9384C136.514 47.897 136.585 47.8603 136.654 47.8283C136.723 47.7963 136.789 47.7583 136.851 47.7143C136.914 47.6704 136.966 47.6085 137.007 47.5286C137.034 47.4651 137.026 47.4223 136.981 47.4003C136.948 47.3713 136.94 47.3285 136.955 47.2719L136.81 47.1878C136.659 47.036 136.479 46.8967 136.27 46.77C136.064 46.6339 135.892 46.5019 135.755 46.3741C135.636 46.4029 135.533 46.3905 135.446 46.3369C135.369 46.2858 135.263 46.2272 135.129 46.161C134.814 46.0562 134.511 45.9398 134.222 45.8117C133.942 45.6862 133.682 45.5255 133.441 45.3296C133.435 45.2773 133.423 45.2286 133.405 45.1833C133.386 45.138 133.337 45.1146 133.257 45.1133C133.22 45.0226 133.183 44.9367 133.144 44.8555C133.107 44.7649 133.077 44.6708 133.052 44.5733C133.102 44.4651 133.141 44.3746 133.171 44.3017C133.203 44.2193 133.196 44.1315 133.15 44.0384C133.221 43.9259 133.276 43.8344 133.315 43.764C133.354 43.6936 133.38 43.5945 133.394 43.4669ZM148.057 46.9257C147.822 46.8625 147.562 46.8131 147.278 46.7776C146.997 46.7326 146.719 46.6935 146.445 46.6605C146.249 46.6382 146.059 46.6125 145.874 46.5834C145.7 46.5568 145.54 46.5292 145.396 46.5007C145.274 46.6905 145.159 46.8568 145.05 46.9995C144.941 47.1421 144.829 47.2788 144.713 47.4095C144.594 47.5497 144.479 47.6958 144.368 47.8479C144.268 47.9931 144.165 48.1524 144.058 48.3259C143.923 48.4516 143.805 48.5716 143.703 48.6859C143.614 48.7934 143.529 48.9222 143.448 49.0725C143.297 49.1837 143.172 49.3118 143.072 49.457C142.975 49.5928 142.897 49.7135 142.839 49.8191L142.737 49.9737C142.665 50.0151 142.619 50.0535 142.6 50.0887C142.583 50.1144 142.551 50.1364 142.506 50.1546C142.469 50.2558 142.408 50.3508 142.324 50.4394C142.292 50.4815 142.265 50.5248 142.243 50.5695C142.224 50.6047 142.212 50.6317 142.206 50.6506C142.181 50.7449 142.141 50.7999 142.086 50.8156C142.083 50.8653 142.069 50.9171 142.045 50.9712C142.023 51.0158 142.001 51.0605 141.979 51.1051C141.92 51.2107 141.886 51.2978 141.878 51.3664C141.896 51.4117 141.911 51.451 141.922 51.4844C141.943 51.5203 141.952 51.563 141.949 51.6127C141.995 51.6656 142.031 51.7006 142.057 51.7176C142.087 51.756 142.135 51.8042 142.2 51.8621L142.29 52.0378C142.264 52.3239 142.163 52.5295 141.988 52.6545C141.798 52.7958 141.534 52.821 141.194 52.73L141.025 52.6845C140.99 52.6247 140.972 52.5794 140.97 52.5485C140.902 52.5 140.847 52.46 140.805 52.4285C140.763 52.397 140.731 52.3479 140.708 52.2812C140.601 52.1917 140.514 52.118 140.449 52.0601L140.34 51.9552C140.368 51.8515 140.383 51.7949 140.386 51.7854C140.343 51.6828 140.316 51.5746 140.306 51.4607C140.306 51.3494 140.31 51.2393 140.319 51.1305C140.323 51.0405 140.32 50.954 140.312 50.871C140.314 50.7905 140.303 50.7169 140.281 50.6502C140.408 50.098 140.584 49.6497 140.808 49.3052C141.032 48.9608 141.256 48.6317 141.482 48.3181C141.608 48.1497 141.734 47.9812 141.86 47.8128C141.988 47.6349 142.109 47.4498 142.221 47.2574L142.386 47.1501C142.493 47.0168 142.577 46.9081 142.64 46.8239C142.715 46.7328 142.79 46.6417 142.865 46.5505C142.911 46.4921 142.951 46.4371 142.985 46.3855C143.031 46.3271 143.07 46.2768 143.102 46.2347C143.045 46.2195 142.992 46.2104 142.942 46.2072C142.895 46.1945 142.847 46.1866 142.797 46.1834C142.738 46.1777 142.683 46.1732 142.634 46.17C142.586 46.1573 142.539 46.1447 142.492 46.1321C142.426 46.1144 142.38 46.097 142.354 46.08C142.238 46.0994 142.119 46.0926 141.996 46.0598L141.854 46.0219C141.826 46.0143 141.798 46.0067 141.769 45.9991C141.753 45.9846 141.736 45.9748 141.717 45.9698C141.622 45.9445 141.543 45.9384 141.479 45.9516C141.366 45.9212 141.257 45.8922 141.153 45.8644L141.012 45.8265C140.993 45.8214 140.968 45.8198 140.937 45.8217C140.909 45.8141 140.886 45.8078 140.867 45.8027C140.801 45.785 140.731 45.7613 140.658 45.7317C140.588 45.6926 140.517 45.6381 140.444 45.5682C140.372 45.3869 140.318 45.2865 140.282 45.267L140.2 45.0631C140.206 45.0039 140.206 44.9483 140.2 44.8961C140.196 44.8344 140.194 44.768 140.192 44.6969C140.18 44.5925 140.169 44.4834 140.159 44.3695C140.161 44.2487 140.182 44.1129 140.223 43.9619C140.252 43.889 140.286 43.8375 140.325 43.8073C140.363 43.7772 140.395 43.7505 140.422 43.7272L140.521 43.5263L140.701 43.5898L141.098 43.6959C141.399 43.7768 141.709 43.8495 142.025 43.9141C142.344 43.9692 142.672 44.0268 143.01 44.087C143.203 44.1187 143.397 44.1504 143.591 44.182C143.794 44.2163 144.002 44.2517 144.214 44.2885C144.275 44.2137 144.334 44.1436 144.392 44.0783L144.553 44.0454C144.725 44.0815 144.837 44.1367 144.887 44.211C144.95 44.2783 144.999 44.3419 145.033 44.4017C145.246 44.4385 145.459 44.4752 145.671 44.512C145.896 44.5418 146.121 44.5669 146.349 44.5873C146.682 44.6261 147.014 44.6696 147.345 44.7178C147.685 44.7685 148.006 44.8343 148.308 44.9152C148.44 44.9506 148.566 44.9894 148.686 45.0317C148.806 45.074 148.916 45.1185 149.014 45.1651L149.129 45.3021C149.143 45.3663 149.166 45.4283 149.201 45.4881C149.245 45.5504 149.289 45.6127 149.333 45.6751C149.418 45.8092 149.498 45.9621 149.574 46.1339C149.649 46.3058 149.636 46.5247 149.534 46.7906C149.428 46.8836 149.354 46.9345 149.311 46.9432L149.139 47.0789L149.001 47.0268C148.944 47.0117 148.89 47.0072 148.838 47.0134C148.788 47.0102 148.737 47.0117 148.685 47.018C148.642 47.0267 148.599 47.0355 148.556 47.0442C148.516 47.0436 148.471 47.0416 148.421 47.0384C148.337 47.0157 148.266 46.9967 148.209 46.9815C148.165 46.9595 148.114 46.9409 148.057 46.9257ZM153.758 54.686C153.729 54.9816 153.651 55.1982 153.523 55.3358C153.405 55.476 153.26 55.5636 153.089 55.5986C152.924 55.6456 152.747 55.6485 152.555 55.6074C152.364 55.5663 152.188 55.5088 152.025 55.435C151.966 55.2777 151.926 55.0898 151.903 54.8715C151.881 54.6532 151.865 54.4315 151.854 54.2062C151.846 53.9716 151.842 53.7429 151.841 53.5202C151.849 53.3001 151.856 53.1048 151.861 52.9343C151.939 52.8337 152.001 52.714 152.049 52.575C152.108 52.4291 152.158 52.2807 152.198 52.1298C152.248 51.9814 152.293 51.8318 152.334 51.6808C152.386 51.523 152.441 51.3759 152.497 51.2394C152.67 50.8609 152.865 50.5089 153.084 50.1833C153.312 49.8602 153.515 49.5155 153.695 49.1489C153.736 49.0691 153.748 48.9864 153.731 48.9008C153.723 48.8178 153.737 48.7457 153.773 48.6848C153.793 48.6496 153.828 48.6336 153.877 48.6368C153.93 48.6305 153.967 48.6051 153.989 48.5605C154.045 48.4643 154.072 48.3807 154.071 48.3096C154.079 48.241 154.12 48.1659 154.192 48.0842C154.26 48.0214 154.345 47.9281 154.449 47.8043C154.565 47.6736 154.635 47.5255 154.659 47.3601C154.759 47.3262 154.857 47.2817 154.953 47.2265C155.048 47.1712 155.142 47.1254 155.232 47.089C155.335 47.0457 155.44 47.0132 155.547 46.9913C155.663 46.9719 155.792 46.9812 155.933 47.0191C155.984 47.1336 156.003 47.25 155.992 47.3683C155.989 47.4891 155.983 47.6086 155.971 47.7268C155.969 47.8476 155.978 47.9662 155.997 48.0826C156.019 48.1896 156.079 48.2865 156.177 48.3734C156.157 48.4489 156.132 48.5432 156.101 48.6564C156.071 48.7696 156.045 48.8841 156.024 48.9998C156.006 49.1061 155.998 49.2102 156.001 49.3121C156.016 49.4071 156.058 49.4789 156.126 49.5274C155.835 49.9347 155.554 50.3398 155.285 50.7427C155.024 51.1481 154.786 51.5646 154.571 51.9921C154.357 52.4101 154.176 52.8418 154.026 53.287C153.886 53.7347 153.797 54.201 153.758 54.686ZM157.066 49.8097C157.185 49.6293 157.335 49.4873 157.514 49.3837C157.703 49.2827 157.895 49.2077 158.09 49.1589C158.297 49.1032 158.504 49.0676 158.71 49.0521C158.916 49.0366 159.111 49.028 159.293 49.0264C159.713 48.9671 160.155 48.9236 160.617 48.8958C161.091 48.8612 161.565 48.8466 162.039 48.8522C162.522 48.8604 163.003 48.9135 163.483 49.0116C163.964 49.1002 164.444 49.2895 164.923 49.5794C164.926 49.6813 164.944 49.7823 164.978 49.8824C165.012 49.9825 165.046 50.0825 165.08 50.1826C165.123 50.2852 165.157 50.3852 165.181 50.4828C165.208 50.5709 165.215 50.6586 165.202 50.746C165.273 50.8562 165.323 50.9708 165.352 51.0897C165.384 51.1992 165.359 51.3291 165.278 51.4793C165.164 51.5295 165.05 51.575 164.938 51.6157C164.838 51.6496 164.73 51.6762 164.614 51.6955C164.287 51.5171 163.941 51.394 163.575 51.3263C163.209 51.2585 162.882 51.1962 162.594 51.1392C162.532 51.0316 162.439 50.9613 162.317 50.9285C162.204 50.8981 162.076 50.8842 161.934 50.8865C161.801 50.8914 161.664 50.895 161.521 50.8973C161.389 50.9022 161.268 50.88 161.16 50.8308C161.046 50.881 160.914 50.9013 160.765 50.8917C160.628 50.8752 160.476 50.8549 160.311 50.8308C160.289 50.8754 160.289 50.911 160.313 50.9374C160.338 50.9544 160.336 50.984 160.304 51.0261C160.343 51.1073 160.401 51.1734 160.478 51.2244C160.565 51.278 160.652 51.3316 160.739 51.3852C160.835 51.4413 160.914 51.503 160.977 51.5704C161.042 51.6284 161.077 51.7083 161.08 51.8102C161.221 51.8481 161.335 51.914 161.421 52.0078C161.507 52.1016 161.571 52.2046 161.611 52.3166C161.652 52.4286 161.671 52.545 161.669 52.6658C161.679 52.7797 161.673 52.879 161.65 52.9639C161.658 53.047 161.682 53.0889 161.723 53.0895C161.763 53.0902 161.8 53.1204 161.835 53.1802C161.83 53.3105 161.867 53.4568 161.945 53.6191C162.025 53.7721 162.078 53.9329 162.104 54.1015C162.059 54.3424 162.017 54.5584 161.975 54.7496C161.937 54.9314 161.855 55.1065 161.729 55.2749C161.494 55.586 161.212 55.8442 160.884 56.0495C160.565 56.2573 160.217 56.4268 159.838 56.5578C159.471 56.6819 159.088 56.7714 158.689 56.8263C158.29 56.8812 157.907 56.915 157.54 56.9278C157.505 56.9082 157.467 56.8981 157.427 56.8974C157.386 56.8968 157.383 56.8706 157.417 56.8191C157.324 56.8649 157.228 56.8846 157.128 56.8782C157.039 56.8743 156.943 56.8538 156.842 56.8165C156.738 56.7887 156.631 56.7549 156.52 56.7152C156.419 56.6779 156.319 56.6561 156.219 56.6497C156.171 56.566 156.127 56.4835 156.088 56.4023C156.056 56.3331 156.039 56.2475 156.036 56.1456C155.989 56.133 155.971 56.1031 155.984 56.0559C156.006 56.0113 155.998 55.9839 155.96 55.9738C156.042 55.8946 156.08 55.8491 156.073 55.8371C156.078 55.8182 156.068 55.8003 156.042 55.7833C156.026 55.7688 156.009 55.7543 155.993 55.7398C155.979 55.7159 155.981 55.6911 155.998 55.6653C156.056 55.5999 156.092 55.5188 156.108 55.422C156.127 55.3157 156.145 55.2094 156.163 55.1031C156.182 54.9968 156.213 54.899 156.257 54.8098C156.311 54.723 156.402 54.6665 156.53 54.6402C156.841 54.7639 157.145 54.8354 157.443 54.8546C157.753 54.8669 158.051 54.8506 158.336 54.8056C158.621 54.7607 158.894 54.7025 159.156 54.6311C159.427 54.5622 159.69 54.5063 159.944 54.4632C159.995 54.3858 160.052 54.3252 160.114 54.2812C160.186 54.2398 160.257 54.2031 160.326 54.1711C160.395 54.1391 160.461 54.1011 160.523 54.0572C160.585 54.0132 160.637 53.9513 160.679 53.8715C160.706 53.808 160.697 53.7652 160.653 53.7431C160.62 53.7141 160.611 53.6713 160.627 53.6147L160.482 53.5306C160.331 53.3788 160.151 53.2396 159.942 53.1129C159.736 52.9768 159.564 52.8448 159.426 52.7169C159.307 52.7457 159.205 52.7333 159.118 52.6797C159.041 52.6287 158.935 52.57 158.801 52.5038C158.485 52.399 158.183 52.2826 157.894 52.1546C157.614 52.029 157.354 51.8683 157.113 51.6724C157.107 51.6202 157.095 51.5714 157.076 51.5261C157.058 51.4808 157.009 51.4575 156.928 51.4561C156.892 51.3655 156.854 51.2796 156.815 51.1984C156.779 51.1077 156.749 51.0137 156.724 50.9161C156.773 50.808 156.813 50.7174 156.842 50.6445C156.875 50.5621 156.868 50.4744 156.822 50.3812C156.893 50.2687 156.947 50.1772 156.987 50.1068C157.026 50.0364 157.052 49.9374 157.066 49.8097ZM75.3892 56.0538C75.3423 56.3041 75.2597 56.4993 75.1413 56.6395C75.0228 56.7796 74.8824 56.8886 74.72 56.9664C74.5576 57.0442 74.3827 57.0934 74.1952 57.1139C74.0077 57.1344 73.8262 57.1515 73.6507 57.1652C73.5879 57.0978 73.5251 57.0304 73.4622 56.963C73.4114 56.8887 73.3426 56.8248 73.2558 56.7712C73.1938 56.512 73.129 56.2823 73.0613 56.0821C72.9961 55.8726 72.9986 55.6559 73.0687 55.432C73.0712 55.4226 73.0898 55.372 73.1245 55.2802C73.1687 55.1909 73.2154 55.0922 73.2646 54.9841C73.3232 54.8784 73.3699 54.7797 73.4046 54.6879C73.4512 54.5892 73.4758 54.5352 73.4784 54.5257C73.2563 54.4865 73.0173 54.473 72.7613 54.4852C72.5052 54.4975 72.2501 54.5252 71.9959 54.5683C71.7512 54.6139 71.5158 54.6621 71.2899 54.7128C71.0735 54.766 70.8938 54.8139 70.751 54.8565C70.7434 54.8848 70.7056 54.9505 70.6375 55.0536C70.572 55.1472 70.4945 55.2478 70.405 55.3552C70.3181 55.4533 70.229 55.5406 70.1377 55.6172C70.0464 55.6939 69.9677 55.7233 69.9017 55.7056C69.9035 55.7365 69.9101 55.7686 69.9214 55.8019C69.9327 55.8353 69.9226 55.873 69.8911 55.9151C69.7489 55.9175 69.6183 55.933 69.4994 55.9618C69.378 56.0001 69.2556 56.0229 69.1323 56.0303C69.0064 56.0471 68.8775 56.0378 68.7454 56.0024C68.6134 55.9671 68.4704 55.8782 68.3164 55.7358C68.3316 55.6792 68.3206 55.6258 68.2836 55.5754C68.2491 55.5156 68.2073 55.4639 68.1583 55.4205C68.1212 55.3701 68.0863 55.3304 68.0537 55.3015C68.0235 55.2631 68.011 55.2344 68.016 55.2156C67.9663 55.2124 67.9563 55.1743 67.986 55.1013C68.0156 55.0284 68.0584 55.0197 68.1143 55.0751C68.046 54.9152 68.0103 54.7843 68.0072 54.6824C68.0162 54.5736 67.9984 54.4324 67.954 54.2587C67.9779 54.2449 68.0056 54.2169 68.0371 54.1748C68.0592 54.1302 68.08 54.0902 68.0995 54.055C68.1191 54.0198 68.1408 53.9953 68.1647 53.9815C68.1886 53.9677 68.2109 53.9787 68.2317 54.0146C68.2355 53.9247 68.2545 53.8539 68.2885 53.8024C68.3226 53.7508 68.3553 53.704 68.3868 53.6619C68.4183 53.6198 68.4451 53.5764 68.4672 53.5318C68.4893 53.4872 68.489 53.4315 68.4665 53.3648C68.673 53.1977 68.8314 53.0026 68.9418 52.7794C69.0547 52.5468 69.1424 52.3327 69.2049 52.1371C69.2886 52.0888 69.3705 52.0096 69.4505 51.8996C69.5399 51.7922 69.6152 51.6809 69.6764 51.5659C69.7401 51.4414 69.7824 51.3213 69.8033 51.2056C69.8361 51.0829 69.8485 50.9801 69.8404 50.897C69.8625 50.8524 69.9182 50.8522 70.0075 50.8963C70.1475 50.6002 70.2787 50.2613 70.4012 49.8796C70.5357 49.491 70.6779 49.1298 70.8281 48.7959C70.9807 48.4526 71.1584 48.1666 71.3613 47.9379C71.5666 47.6997 71.8269 47.5774 72.1421 47.5708C72.1456 47.7841 72.1696 47.9775 72.214 48.1512C72.2679 48.3274 72.3278 48.5002 72.3936 48.6695C72.4714 48.8318 72.5433 48.9977 72.6091 49.167C72.6844 49.3388 72.7452 49.527 72.7915 49.7315C72.734 49.9082 72.6596 50.1106 72.5681 50.3389C72.4766 50.5671 72.3744 50.7975 72.2615 51.0302C72.1581 51.2653 72.0524 51.4897 71.9446 51.7035C71.8462 51.9198 71.7567 52.103 71.676 52.2533C71.6728 52.303 71.6888 52.3376 71.724 52.3571C71.7686 52.3792 71.7667 52.4242 71.7182 52.4921C71.9597 52.4961 72.2094 52.5074 72.4673 52.526C72.7252 52.5445 72.9844 52.5584 73.2448 52.5675C73.5052 52.5766 73.7575 52.5785 74.0016 52.5731C74.2576 52.5608 74.4986 52.5294 74.7245 52.4787C74.8702 52.1234 75.0301 51.772 75.2041 51.4243C75.3782 51.0767 75.4887 50.7019 75.5357 50.3C75.593 50.2749 75.6434 50.2378 75.6868 50.1888C75.7303 50.1398 75.7876 50.1147 75.8586 50.1135C75.8595 49.9217 75.8912 49.7279 75.9537 49.5324C76.0162 49.3368 76.0998 49.157 76.2044 48.9929C76.3185 48.8314 76.4485 48.7045 76.5946 48.6122C76.7526 48.513 76.9215 48.4673 77.1014 48.475C77.1648 48.6538 77.2101 48.8429 77.2376 49.0423C77.2675 49.2323 77.2962 49.427 77.3237 49.6265C77.3631 49.819 77.4037 50.0069 77.4457 50.19C77.4996 50.3662 77.5821 50.5298 77.6933 50.6809C77.6483 50.9621 77.5913 51.2501 77.5224 51.545C77.4629 51.8425 77.3974 52.1434 77.326 52.4478C77.1545 52.7861 76.976 53.1123 76.7907 53.4266C76.6174 53.734 76.4613 54.0713 76.3224 54.4385C76.2362 54.4963 76.1616 54.5673 76.0986 54.6515C76.0355 54.7357 75.9713 54.8247 75.9057 54.9183C75.8427 55.0026 75.775 55.0855 75.7026 55.1672C75.6327 55.2395 75.5558 55.2998 75.4721 55.3481C75.4795 55.4714 75.4552 55.5811 75.3991 55.6773C75.3549 55.7666 75.3516 55.8921 75.3892 56.0538ZM86.2398 51.8942C86.2315 51.9628 86.2176 52.0147 86.1981 52.0499C86.1905 52.0782 86.1782 52.1052 86.1612 52.131C86.1536 52.1593 86.1447 52.1923 86.1346 52.23C86.1271 52.2583 86.1238 52.308 86.125 52.3791C85.841 52.6467 85.5505 52.8065 85.2535 52.8583C84.9685 52.9033 84.6675 52.9136 84.3505 52.8893C84.036 52.8556 83.7108 52.8241 83.3749 52.7948C83.0485 52.768 82.7043 52.8072 82.3425 52.9124C82.2325 52.8324 82.1193 52.8021 82.0029 52.8214C81.8959 52.8433 81.7506 52.8196 81.567 52.7501C81.4953 52.7916 81.4132 52.8151 81.3207 52.8206C81.2307 52.8167 81.1395 52.8176 81.047 52.8231C81.062 52.9181 81.0522 53.0115 81.0174 53.1033C80.9947 53.1882 80.9899 53.2628 81.003 53.3269C81.3256 53.4437 81.69 53.5363 82.0963 53.6047C82.512 53.6757 82.9145 53.7582 83.3038 53.8524C83.3006 53.9021 83.287 53.9339 83.2631 53.9477C83.2417 53.9521 83.2307 53.9744 83.23 54.0146C83.2834 54.0795 83.333 54.1585 83.3788 54.2517C83.4272 54.3354 83.4755 54.4191 83.5238 54.5028C83.5722 54.5866 83.623 54.6608 83.6764 54.7257C83.7418 54.7837 83.8229 54.8206 83.9197 54.8364C83.9373 54.922 83.9381 55.0132 83.9222 55.11C83.9184 55.2 83.8849 55.2871 83.8219 55.3713C83.6432 55.4346 83.4632 55.5027 83.2819 55.5754C83.1032 55.6387 82.9176 55.6901 82.725 55.7295C82.5419 55.7714 82.3485 55.7954 82.1446 55.8015C81.9528 55.8006 81.7449 55.7651 81.5211 55.695C81.4739 55.6824 81.4362 55.6723 81.4079 55.6647C81.389 55.6596 81.3645 55.6379 81.3343 55.5995C81.2462 55.6264 81.134 55.6115 80.9975 55.5547C80.8705 55.5005 80.763 55.4868 80.6749 55.5138C80.5837 55.4388 80.4615 55.3858 80.308 55.3548C80.1665 55.3169 80.0442 55.2639 79.9411 55.1959C79.7371 55.3535 79.5435 55.5291 79.3602 55.7226C79.1769 55.9162 79.004 56.1276 78.8414 56.357C79.1495 56.4901 79.4086 56.5798 79.6186 56.626C79.8381 56.6747 80.0447 56.7148 80.2384 56.7465C80.4346 56.7688 80.6343 56.797 80.8375 56.8312C81.0432 56.856 81.2957 56.9136 81.595 57.0039C81.8114 56.9507 82.0508 56.944 82.3131 56.984C82.5873 57.017 82.843 57.0249 83.0802 57.0075C83.1481 57.0561 83.2002 57.1256 83.2366 57.2163C83.2755 57.2975 83.3097 57.3774 83.3391 57.4561C83.3806 57.5278 83.4233 57.5949 83.4672 57.6572C83.5112 57.7195 83.5769 57.7573 83.6643 57.7707C83.6919 57.8185 83.7029 57.872 83.6971 57.9311C83.7034 57.9833 83.7049 58.0343 83.7017 58.084C83.6985 58.1337 83.7012 58.1799 83.71 58.2227C83.7307 58.2586 83.7706 58.2794 83.8297 58.2851C83.6048 58.5585 83.3753 58.7548 83.1412 58.874C82.919 58.9864 82.6786 59.0534 82.42 59.0751C82.1615 59.0968 81.8796 59.0921 81.5746 59.0609C81.279 59.0322 80.9478 59.0041 80.5811 58.9766C80.4911 58.9728 80.4217 58.9491 80.3726 58.9056C80.3211 58.8716 80.2576 58.8445 80.1821 58.8243C79.9525 58.8133 79.6818 58.7862 79.3698 58.7431C79.0578 58.6999 78.7475 58.6319 78.4387 58.5391C78.13 58.4462 77.8442 58.3242 77.5814 58.1729C77.3161 58.031 77.1179 57.8465 76.9867 57.6192C76.9289 57.533 76.8973 57.4436 76.8917 57.3511C76.8981 57.2518 76.8558 57.1646 76.7646 57.0896C76.7881 56.9645 76.8058 56.8226 76.818 56.6641C76.8301 56.5056 76.8435 56.3424 76.8582 56.1744C76.8754 55.9971 76.8961 55.8257 76.9202 55.6603C76.9537 55.4974 77.0023 55.3537 77.066 55.2292C77.1322 55.0953 77.2229 54.9831 77.3381 54.8927C77.4628 54.8048 77.5287 54.691 77.5358 54.5513C77.5854 54.5545 77.6201 54.5385 77.6396 54.5033C77.6617 54.4587 77.7045 54.4499 77.768 54.4771C77.8701 54.3224 77.9743 54.1785 78.0808 54.0453C78.1873 53.9121 78.2925 53.7835 78.3964 53.6597C78.5098 53.5385 78.6185 53.4159 78.7224 53.2921C78.8383 53.1614 78.9533 53.0153 79.0673 52.8538C78.9681 52.6958 78.9045 52.5372 78.8764 52.378C78.8602 52.2119 78.8569 52.0543 78.8666 51.9052C78.8787 51.7467 78.8956 51.5895 78.9171 51.4335C78.9412 51.2681 78.9512 51.0989 78.947 50.9259C79.0792 50.8097 79.2228 50.7268 79.3776 50.6773C79.5443 50.6209 79.7155 50.5858 79.891 50.5722C80.0665 50.5586 80.2537 50.5582 80.4524 50.571C80.6512 50.5838 80.8607 50.5944 81.0808 50.6029C81.491 50.5814 81.8511 50.5768 82.1613 50.5891C82.4808 50.6039 82.7871 50.6304 83.0802 50.6685C83.3853 50.6997 83.6985 50.7381 84.0199 50.7838C84.3413 50.8295 84.7102 50.8677 85.1266 50.8984C85.1887 51.006 85.2575 51.0699 85.333 51.0902C85.3935 51.0154 85.4423 51.0032 85.4793 51.0535C85.5283 51.097 85.5595 51.075 85.5728 50.9876C85.6242 51.1732 85.7054 51.3416 85.8166 51.4927C85.9397 51.6369 86.0808 51.7707 86.2398 51.8942ZM86.2965 58.8703C86.0917 59.2198 85.9203 59.4822 85.7823 59.6575C85.6563 59.826 85.4853 59.9925 85.2693 60.157C85.1517 60.1053 85.0631 60.0967 85.0033 60.1312C84.9434 60.1658 84.8802 60.1943 84.8135 60.2169C84.7235 60.213 84.6622 60.1966 84.6295 60.1676C84.5969 60.1386 84.5702 60.1062 84.5495 60.0703C84.5262 60.0439 84.4948 60.0102 84.4552 59.9692C84.4225 59.9402 84.3638 59.9144 84.2789 59.8916C84.2802 59.8111 84.2756 59.7341 84.265 59.6604C84.2638 59.5894 84.2088 59.5493 84.1 59.5404C84.1391 59.47 84.1602 59.4099 84.1634 59.3603C84.1692 59.3011 84.1677 59.2502 84.1589 59.2074C84.1621 59.1577 84.164 59.1127 84.1647 59.0725C84.1679 59.0228 84.1878 58.9674 84.2244 58.9065C84.1772 58.8938 84.1483 58.8507 84.1377 58.7771C84.1271 58.7035 84.1118 58.6286 84.0917 58.5525C84.1655 58.3902 84.2368 58.2375 84.3055 58.0941C84.3743 57.9508 84.4452 57.8181 84.5183 57.6962C84.6009 57.5768 84.674 57.4548 84.7377 57.3303C84.8014 57.2059 84.8239 57.0653 84.8052 56.9086C84.8353 56.947 84.8649 56.9499 84.8939 56.9172C84.9254 56.8751 84.9547 56.8223 84.9818 56.7588C85.0115 56.6859 85.0351 56.6164 85.0528 56.5504C85.073 56.4749 85.0848 56.4123 85.088 56.3626C85.248 56.1427 85.3905 55.9129 85.5153 55.6734C85.6521 55.427 85.7782 55.1827 85.8936 54.9407C86.0184 54.7011 86.142 54.4663 86.2643 54.2363C86.3867 54.0062 86.5228 53.8 86.6727 53.6177C86.7815 53.6267 86.8909 53.6712 87.0009 53.7512C87.1229 53.8243 87.1891 53.8977 87.1998 53.9713C87.4956 53.8483 87.7732 53.6801 88.0326 53.4665C88.2946 53.2435 88.5587 53.0312 88.825 52.8296C89.0914 52.628 89.369 52.4597 89.6579 52.3248C89.9562 52.1925 90.2944 52.1567 90.6724 52.2175C90.8231 52.4096 90.9915 52.6114 91.1774 52.823C91.3753 53.0277 91.5181 53.2681 91.6059 53.5444C91.6712 53.6023 91.7212 53.6612 91.7557 53.721C91.8022 53.7739 91.8568 53.8341 91.9197 53.9014L91.8742 54.0712C91.9596 54.2053 92.0163 54.352 92.0444 54.5111C92.0845 54.6634 92.1114 54.8273 92.125 55.0029C92.1412 55.1689 92.156 55.3398 92.1697 55.5153C92.1858 55.6814 92.2127 55.8453 92.2502 56.007C92.2187 56.0491 92.1979 56.089 92.1878 56.1267C92.1802 56.155 92.1761 56.1893 92.1754 56.2296C92.1842 56.2724 92.1882 56.3139 92.1875 56.3542C92.1869 56.3944 92.173 56.4463 92.1458 56.5098C92.0063 56.9173 91.7798 57.2155 91.4663 57.4044C91.1623 57.5959 90.8177 57.7311 90.4326 57.8099C90.0501 57.8793 89.6502 57.9187 89.2332 57.9283C88.8161 57.9379 88.4342 57.967 88.0875 58.0156C88.0774 58.0534 88.0865 58.076 88.1148 58.0836C88.1526 58.0937 88.1604 58.1211 88.1383 58.1657C88.3268 58.3679 88.4757 58.5291 88.585 58.6494C88.6943 58.7696 88.798 58.8733 88.896 58.9602C89.0035 59.0496 89.1169 59.1356 89.2363 59.2182C89.3677 59.2938 89.5485 59.3928 89.7786 59.5151C90.0086 59.6374 90.1847 59.7352 90.3066 59.8083C90.4405 59.8745 90.5603 59.9369 90.6659 59.9955C90.774 60.0447 90.8822 60.0939 90.9903 60.1431C91.1104 60.1854 91.2764 60.2451 91.4883 60.3221C91.5505 60.4297 91.5934 60.5524 91.6171 60.6902C91.6528 60.8211 91.6637 60.9504 91.6497 61.0781C91.6382 61.1963 91.6126 61.3108 91.5729 61.4214C91.5356 61.5227 91.4799 61.5987 91.4056 61.6496C91.4074 61.6804 91.4225 61.6996 91.4508 61.7072C91.4911 61.7079 91.5288 61.718 91.564 61.7375C91.4973 61.7601 91.4375 61.7946 91.3846 61.8411C91.3317 61.8876 91.2788 61.9341 91.2259 61.9806C91.173 62.0271 91.1179 62.0628 91.0606 62.0879C91.0008 62.1225 90.9272 62.1331 90.8398 62.1198C90.5171 62.1546 90.1479 62.0607 89.7324 61.8382C89.3143 61.6251 88.8011 61.2954 88.1927 60.8493C87.8885 60.6263 87.6405 60.4385 87.4488 60.2861C87.2691 60.1267 87.1117 59.9784 86.9766 59.8411C86.8535 59.6969 86.7411 59.5505 86.6394 59.4019C86.5471 59.2559 86.4328 59.0786 86.2965 58.8703ZM89.6203 54.5592C89.4761 54.6823 89.3215 54.7875 89.1566 54.8747C89.0011 54.9645 88.8444 55.059 88.6864 55.1582C88.5403 55.2505 88.3986 55.3642 88.2613 55.4993C88.1266 55.6249 88.0125 55.7865 87.9192 55.9839C88.2594 56.0346 88.6278 56.0372 89.0241 55.9918C89.423 55.9369 89.8005 55.8864 90.1566 55.8403C90.1972 55.5378 90.1567 55.2741 90.0349 55.0494C89.9226 54.8272 89.7844 54.6638 89.6203 54.5592ZM101.493 55.9812C101.484 56.0498 101.471 56.1017 101.451 56.1369C101.443 56.1652 101.431 56.1922 101.414 56.218C101.407 56.2463 101.398 56.2793 101.388 56.317C101.38 56.3453 101.377 56.395 101.378 56.4661C101.094 56.7338 100.803 56.8935 100.506 56.9454C100.221 56.9903 99.9204 57.0006 99.6034 56.9764C99.2889 56.9426 98.9637 56.9111 98.6279 56.8818C98.3014 56.855 97.9573 56.8942 97.5954 56.9994C97.4854 56.9194 97.3722 56.8891 97.2558 56.9084C97.1489 56.9303 97.0036 56.9066 96.82 56.8372C96.7482 56.8786 96.6661 56.9021 96.5736 56.9076C96.4837 56.9037 96.3925 56.9046 96.3 56.9101C96.315 57.0051 96.3051 57.0985 96.2704 57.1903C96.2477 57.2752 96.2428 57.3498 96.256 57.414C96.5785 57.5307 96.943 57.6233 97.3493 57.6917C97.765 57.7627 98.1675 57.8453 98.5568 57.9395C98.5536 57.9891 98.54 58.0209 98.5161 58.0347C98.4947 58.0391 98.4836 58.0614 98.483 58.1017C98.5364 58.1665 98.586 58.2455 98.6318 58.3387C98.6801 58.4224 98.7284 58.5061 98.7768 58.5899C98.8251 58.6736 98.876 58.7479 98.9294 58.8127C98.9947 58.8707 99.0758 58.9076 99.1727 58.9234C99.1902 59.009 99.191 59.1002 99.1752 59.1971C99.1713 59.287 99.1379 59.3741 99.0749 59.4583C98.8961 59.5216 98.7161 59.5897 98.5349 59.6624C98.3562 59.7257 98.1705 59.7771 97.978 59.8165C97.7949 59.8584 97.6014 59.8824 97.3976 59.8885C97.2057 59.8876 96.9979 59.8521 96.774 59.782C96.7268 59.7694 96.6891 59.7593 96.6608 59.7517C96.6419 59.7467 96.6174 59.7249 96.5873 59.6865C96.4992 59.7135 96.3869 59.6985 96.2505 59.6418C96.1235 59.5875 96.0159 59.5739 95.9278 59.6008C95.8367 59.5258 95.7144 59.4728 95.561 59.4418C95.4195 59.4039 95.2972 59.3509 95.1941 59.2829C94.9901 59.4405 94.7964 59.6161 94.6132 59.8096C94.4299 60.0032 94.2569 60.2147 94.0944 60.4441C94.4024 60.5772 94.6615 60.6668 94.8716 60.713C95.091 60.7617 95.2976 60.8019 95.4914 60.8335C95.6876 60.8558 95.8873 60.884 96.0904 60.9182C96.2961 60.943 96.5486 61.0006 96.8479 61.0909C97.0644 61.0377 97.3037 61.031 97.566 61.071C97.8403 61.104 98.096 61.1119 98.3331 61.0946C98.401 61.1431 98.4531 61.2126 98.4895 61.3033C98.5284 61.3845 98.5626 61.4644 98.5921 61.5431C98.6335 61.6148 98.6762 61.6819 98.7202 61.7442C98.7641 61.8065 98.8298 61.8444 98.9172 61.8577C98.9449 61.9055 98.9558 61.959 98.9501 62.0181C98.9563 62.0703 98.9578 62.1213 98.9546 62.171C98.9514 62.2207 98.9542 62.2669 98.9629 62.3097C98.9837 62.3456 99.0236 62.3664 99.0827 62.3721C98.8578 62.6455 98.6283 62.8418 98.3941 62.961C98.1719 63.0734 97.9315 63.1404 97.673 63.1621C97.4144 63.1838 97.1326 63.1791 96.8275 63.1479C96.5319 63.1192 96.2007 63.0912 95.834 63.0637C95.7441 63.0598 95.6746 63.0361 95.6256 62.9926C95.574 62.9586 95.5105 62.9315 95.4351 62.9113C95.2055 62.9003 94.9347 62.8732 94.6227 62.8301C94.3108 62.7869 94.0004 62.7189 93.6917 62.6261C93.3829 62.5333 93.0971 62.4112 92.8344 62.2599C92.5691 62.1181 92.3708 61.9335 92.2396 61.7063C92.1819 61.62 92.1502 61.5306 92.1447 61.4382C92.1511 61.3388 92.1087 61.2516 92.0176 61.1766C92.041 61.0515 92.0588 60.9096 92.0709 60.7511C92.0831 60.5926 92.0965 60.4294 92.1112 60.2615C92.1284 60.0841 92.149 59.9127 92.1731 59.7473C92.2066 59.5844 92.2552 59.4407 92.3189 59.3162C92.3851 59.1823 92.4759 59.0701 92.5911 58.9797C92.7157 58.8918 92.7816 58.778 92.7887 58.6384C92.8384 58.6416 92.873 58.6256 92.8926 58.5904C92.9146 58.5457 92.9574 58.537 93.0209 58.5641C93.123 58.4095 93.2273 58.2655 93.3338 58.1323C93.4402 57.9991 93.5454 57.8706 93.6494 57.7468C93.7628 57.6255 93.8714 57.5029 93.9754 57.3791C94.0913 57.2484 94.2062 57.1023 94.3203 56.9408C94.2211 56.7828 94.1574 56.6242 94.1293 56.465C94.1132 56.2989 94.1099 56.1413 94.1195 55.9922C94.1316 55.8337 94.1485 55.6765 94.1701 55.5205C94.1942 55.3551 94.2041 55.1859 94.1999 55.0129C94.3322 54.8967 94.4757 54.8138 94.6305 54.7643C94.7973 54.7079 94.9684 54.6729 95.144 54.6592C95.3195 54.6456 95.5066 54.6452 95.7054 54.658C95.9042 54.6708 96.1136 54.6815 96.3338 54.6899C96.744 54.6684 97.1041 54.6638 97.4142 54.6761C97.7338 54.691 98.0401 54.7174 98.3332 54.7555C98.6382 54.7867 98.9515 54.8251 99.2728 54.8708C99.5942 54.9165 99.9631 54.9547 100.38 54.9854C100.442 55.093 100.51 55.1569 100.586 55.1772C100.646 55.1024 100.695 55.0902 100.732 55.1405C100.781 55.184 100.812 55.162 100.826 55.0746C100.877 55.2602 100.958 55.4286 101.07 55.5797C101.193 55.7239 101.334 55.8578 101.493 55.9812Z" fill="#363333"/>
<g clip-path="url(#clip0_601_3827)">
<path d="M57.4449 117.899C58.3512 116.91 59.223 115.886 60.0373 114.812C60.8542 113.738 61.6058 112.616 62.2882 111.45C63.0147 110.209 63.6499 108.915 64.1886 107.58C64.9208 105.792 65.4027 103.909 65.6205 101.985C65.7269 101.015 65.7475 100.037 65.6822 99.0621C65.6527 98.5582 65.5805 98.0575 65.4663 97.5653C65.3462 97.0401 65.1407 96.5378 64.858 96.0786C64.7012 95.827 64.5079 95.6002 64.2845 95.4057C64.0352 95.1869 63.7381 95.0305 63.4178 94.9493C63.0842 94.8681 62.7357 94.8782 62.4086 94.9786C62.1071 95.0718 61.8279 95.2253 61.5878 95.4299C61.3649 95.6178 61.1699 95.8368 61.0086 96.0801C60.86 96.3076 60.7329 96.5486 60.6291 96.8001C60.4325 97.2638 60.2746 97.7433 60.157 98.2337C59.9237 99.2029 59.8218 100.2 59.8539 101.199C59.8859 102.201 60.0617 103.195 60.3758 104.149C60.7636 105.338 61.3891 106.437 62.2136 107.378C62.3279 107.504 62.4499 107.623 62.5788 107.734C62.7121 107.849 62.8545 107.953 63.0047 108.044C63.3069 108.236 63.6398 108.374 63.9884 108.452C64.3425 108.529 64.7075 108.539 65.0642 108.48C65.4041 108.424 65.7335 108.317 66.0416 108.163C66.6112 107.871 67.1278 107.486 67.5701 107.023C67.7864 106.804 67.991 106.575 68.1831 106.335C68.2785 106.216 68.3721 106.096 68.4615 105.973C68.5521 105.85 68.632 105.731 68.7177 105.609C69.3929 104.644 70.004 103.635 70.5469 102.588C72.7046 98.3867 73.7799 93.7031 73.6752 88.9617C73.6747 88.7842 73.6646 88.6066 73.6564 88.4288C73.6469 88.2511 73.6417 88.0732 73.6277 87.8956C73.5986 87.5405 73.5742 87.1851 73.5297 86.832C73.4548 86.1245 73.338 85.4244 73.208 84.7362C73.1024 84.1875 72.9632 83.6456 72.7913 83.1136C72.7188 82.899 72.6513 82.7095 72.5854 82.5435C72.5156 82.3785 72.4503 82.2363 72.3892 82.1146C72.2113 81.7602 72.1372 81.7856 72.16 82.1234C72.1658 82.2078 72.1776 82.3119 72.1955 82.4344C72.2145 82.5566 72.2366 82.6979 72.2616 82.8584C72.2869 83.0184 72.3179 83.1958 72.3544 83.3906C72.387 83.586 72.4216 83.7991 72.4633 84.0278C72.6731 85.2356 72.8168 86.4535 72.8939 87.6761C73.0708 90.4695 72.8091 93.2702 72.1185 95.9754C71.4403 98.672 70.3316 101.237 68.8352 103.572C68.7308 103.731 68.6259 103.891 68.5205 104.051C68.4106 104.208 68.3003 104.366 68.1898 104.524C68.0818 104.683 67.9619 104.834 67.8483 104.99C67.733 105.145 67.6194 105.301 67.5038 105.443C67.0662 106.007 66.5486 106.503 65.9676 106.915C65.5297 107.215 65.0481 107.403 64.5849 107.4C64.3517 107.397 64.1211 107.347 63.9061 107.255C63.7939 107.207 63.686 107.149 63.5835 107.082C63.4785 107.017 63.3798 106.943 63.2886 106.86C63.1924 106.773 63.1018 106.68 63.0173 106.582L62.7502 106.253C62.6664 106.138 62.5812 106.024 62.499 105.908C62.4222 105.789 62.3407 105.672 62.2671 105.55C61.9705 105.06 61.725 104.541 61.5344 104.002C61.1527 102.914 60.9736 101.766 61.0063 100.617C61.0228 100.041 61.0864 99.4675 61.1964 98.9027C61.3024 98.3444 61.4639 97.7985 61.6785 97.2733L61.7405 97.1307L61.7718 97.0595L61.8027 96.9961C61.8433 96.9127 61.8884 96.8316 61.938 96.7533C62.0326 96.6028 62.1464 96.4654 62.2767 96.3448C62.3936 96.2355 62.5298 96.1489 62.6784 96.0894C62.7442 96.0629 62.8132 96.0452 62.8837 96.0365C62.9498 96.0268 63.017 96.0268 63.0833 96.0366C63.1505 96.0447 63.2163 96.0625 63.2785 96.0895C63.3465 96.1174 63.411 96.153 63.4708 96.1959C63.6071 96.2964 63.7269 96.4177 63.8259 96.5554C63.9378 96.71 64.0337 96.8756 64.1123 97.0495C64.1954 97.2315 64.2652 97.4193 64.3209 97.6114C64.4341 98.0158 64.5102 98.4295 64.5482 98.8473C64.5701 99.0614 64.5858 99.2783 64.5974 99.4979C64.6081 99.7157 64.6148 99.9337 64.6173 100.152C64.6218 101.028 64.5591 101.903 64.4297 102.769C64.1952 104.322 63.782 105.842 63.1984 107.297C62.611 108.762 61.8942 110.169 61.0565 111.504C60.6387 112.174 60.197 112.829 59.7313 113.469C59.4977 113.787 59.2613 114.104 59.0141 114.413L58.6453 114.879L58.2668 115.337C58.0171 115.644 57.7516 115.939 57.4939 116.24C57.2272 116.534 56.9668 116.833 56.6935 117.122C56.1558 117.706 55.597 118.271 55.0342 118.833C53.2287 120.618 51.4821 122.269 50.0395 123.872C49.3756 124.608 49.6066 124.777 50.5205 124.087C51.8015 123.094 53.1193 122.016 54.3877 120.885C55.4321 119.957 56.4445 118.932 57.4219 117.895C57.4295 117.896 57.4365 117.898 57.4449 117.899Z" fill="#363333"/>
<path d="M53.1924 116.04C52.9856 116.851 52.7164 117.645 52.3871 118.414C52.2941 118.616 52.2028 118.82 52.1063 119.021C52.0028 119.22 51.8968 119.417 51.7855 119.61C51.2887 120.438 50.7235 121.234 50.1412 122.027L49.2577 123.214C48.9623 123.61 48.6611 124.005 48.3747 124.41L48.3705 124.416C48.2719 124.556 48.2329 124.729 48.2618 124.898C48.2908 125.068 48.3854 125.219 48.5249 125.319C48.6133 125.382 48.7156 125.421 48.8226 125.435C48.9297 125.448 49.0381 125.434 49.1382 125.395L50.4341 124.877C51.834 124.328 53.2349 123.777 54.6349 123.215C56.0347 122.653 57.4335 122.082 58.8228 121.47C59.2408 121.28 59.6479 121.066 60.0424 120.831C60.4204 120.613 60.616 120.368 60.6975 120.141C60.815 119.809 60.4701 119.683 59.8968 119.876C59.5197 120.006 59.1508 120.159 58.7921 120.333C57.1335 121.103 55.4265 121.764 53.6817 122.313C53.1995 122.467 52.6905 122.609 52.2449 122.82C51.0896 123.366 49.8797 123.795 48.6838 124.254L49.3661 125.133C49.5423 124.894 49.7145 124.652 49.8787 124.404C50.5304 123.43 51.2404 122.485 51.8803 121.479C52.4619 120.579 52.973 119.635 53.4089 118.655C53.8351 117.671 54.1746 116.65 54.4236 115.604C54.4721 115.397 54.5149 115.191 54.5505 114.988C54.5796 114.784 54.6007 114.582 54.6137 114.383C54.6412 113.998 54.6214 113.61 54.5548 113.229C54.5244 113.059 54.4469 112.969 54.3547 112.965C54.2648 112.96 54.1513 113.04 54.0742 113.213C53.9797 113.461 53.8988 113.718 53.8129 113.975C53.7253 114.231 53.6452 114.49 53.5695 114.75C53.5002 114.96 53.4433 115.176 53.39 115.394L53.3503 115.558L53.3048 115.72C53.2739 115.827 53.243 115.934 53.2122 116.042L53.1924 116.04Z" fill="#363333"/>
</g>
<defs>
<clipPath id="clip0_601_3827">
<rect width="47.1177" height="46.708" fill="white" transform="matrix(-0.5 -0.866025 -0.866025 0.5 93.0092 112.805)"/>
</clipPath>
</defs>
</svg>
