<svg width="217" height="189" viewBox="0 0 217 189" fill="none" xmlns="http://www.w3.org/2000/svg">
<g id="Frame 16">
<g id="Component 2">
<rect width="217" height="189" fill="white"/>
<circle id="Ellipse 6" cx="3.5" cy="3.5" r="3.5" fill="#4C4848"/>
<circle id="Ellipse 134" cx="3.5" cy="115.5" r="3.5" fill="#4C4848"/>
<circle id="Ellipse 70" cx="3.5" cy="59.5" r="3.5" fill="#4C4848"/>
<circle id="Ellipse 38" cx="3.5" cy="31.5" r="3.5" fill="#4C4848"/>
<circle id="Ellipse 136" cx="3.5" cy="143.5" r="3.5" fill="#4C4848"/>
<circle id="Ellipse 261" cx="3.5" cy="171.5" r="3.5" fill="#4C4848"/>
<circle id="Ellipse 71" cx="3.5" cy="87.5" r="3.5" fill="#4C4848"/>
<circle id="Ellipse 22" cx="3.5" cy="17.5" r="3.5" fill="#4C4848"/>
<circle id="Ellipse 138" cx="3.5" cy="129.5" r="3.5" fill="#4C4848"/>
<circle id="Ellipse 72" cx="3.5" cy="73.5" r="3.5" fill="#4C4848"/>
<circle id="Ellipse 39" cx="3.5" cy="45.5" r="3.5" fill="#4C4848"/>
<circle id="Ellipse 140" cx="3.5" cy="157.5" r="3.5" fill="#4C4848"/>
<circle id="Ellipse 262" cx="3.5" cy="185.5" r="3.5" fill="#4C4848"/>
<circle id="Ellipse 73" cx="3.5" cy="101.5" r="3.5" fill="#4C4848"/>
<circle id="Ellipse 14" cx="115.5" cy="3.5" r="3.5" fill="#4C4848"/>
<circle id="Ellipse 142" cx="115.5" cy="115.5" r="3.5" fill="#4C4848"/>
<circle id="Ellipse 74" cx="115.5" cy="59.5" r="3.5" fill="#4C4848"/>
<circle id="Ellipse 40" cx="115.5" cy="31.5" r="3.5" fill="#4C4848"/>
<circle id="Ellipse 144" cx="115.5" cy="143.5" r="3.5" fill="#4C4848"/>
<circle id="Ellipse 263" cx="115.5" cy="171.5" r="3.5" fill="#4C4848"/>
<circle id="Ellipse 75" cx="115.5" cy="87.5" r="3.5" fill="#4C4848"/>
<circle id="Ellipse 23" cx="115.5" cy="17.5" r="3.5" fill="#4C4848"/>
<circle id="Ellipse 146" cx="115.5" cy="129.5" r="3.5" fill="#4C4848"/>
<circle id="Ellipse 76" cx="115.5" cy="73.5" r="3.5" fill="#4C4848"/>
<circle id="Ellipse 41" cx="115.5" cy="45.5" r="3.5" fill="#4C4848"/>
<circle id="Ellipse 148" cx="115.5" cy="157.5" r="3.5" fill="#4C4848"/>
<circle id="Ellipse 264" cx="115.5" cy="185.5" r="3.5" fill="#4C4848"/>
<circle id="Ellipse 77" cx="115.5" cy="101.5" r="3.5" fill="#4C4848"/>
<circle id="Ellipse 10" cx="59.5" cy="3.5" r="3.5" fill="#4C4848"/>
<circle id="Ellipse 150" cx="59.5" cy="115.5" r="3.5" fill="#4C4848"/>
<circle id="Ellipse 78" cx="59.5" cy="59.5" r="3.5" fill="#4C4848"/>
<circle id="Ellipse 42" cx="59.5" cy="31.5" r="3.5" fill="#4C4848"/>
<circle id="Ellipse 152" cx="59.5" cy="143.5" r="3.5" fill="#4C4848"/>
<circle id="Ellipse 265" cx="59.5" cy="171.5" r="3.5" fill="#4C4848"/>
<circle id="Ellipse 79" cx="59.5" cy="87.5" r="3.5" fill="#4C4848"/>
<circle id="Ellipse 24" cx="59.5" cy="17.5" r="3.5" fill="#4C4848"/>
<circle id="Ellipse 154" cx="59.5" cy="129.5" r="3.5" fill="#4C4848"/>
<circle id="Ellipse 80" cx="59.5" cy="73.5" r="3.5" fill="#4C4848"/>
<circle id="Ellipse 43" cx="59.5" cy="45.5" r="3.5" fill="#4C4848"/>
<circle id="Ellipse 156" cx="59.5" cy="157.5" r="3.5" fill="#4C4848"/>
<circle id="Ellipse 266" cx="59.5" cy="185.5" r="3.5" fill="#4C4848"/>
<circle id="Ellipse 81" cx="59.5" cy="101.5" r="3.5" fill="#4C4848"/>
<circle id="Ellipse 15" cx="171.5" cy="3.5" r="3.5" fill="#4C4848"/>
<circle id="Ellipse 158" cx="171.5" cy="115.5" r="3.5" fill="#4C4848"/>
<circle id="Ellipse 82" cx="171.5" cy="59.5" r="3.5" fill="#4C4848"/>
<circle id="Ellipse 44" cx="171.5" cy="31.5" r="3.5" fill="#4C4848"/>
<circle id="Ellipse 160" cx="171.5" cy="143.5" r="3.5" fill="#4C4848"/>
<circle id="Ellipse 267" cx="171.5" cy="171.5" r="3.5" fill="#4C4848"/>
<circle id="Ellipse 83" cx="171.5" cy="87.5" r="3.5" fill="#4C4848"/>
<circle id="Ellipse 25" cx="171.5" cy="17.5" r="3.5" fill="#4C4848"/>
<circle id="Ellipse 162" cx="171.5" cy="129.5" r="3.5" fill="#4C4848"/>
<circle id="Ellipse 84" cx="171.5" cy="73.5" r="3.5" fill="#4C4848"/>
<circle id="Ellipse 45" cx="171.5" cy="45.5" r="3.5" fill="#4C4848"/>
<circle id="Ellipse 164" cx="171.5" cy="157.5" r="3.5" fill="#4C4848"/>
<circle id="Ellipse 268" cx="171.5" cy="185.5" r="3.5" fill="#4C4848"/>
<circle id="Ellipse 85" cx="171.5" cy="101.5" r="3.5" fill="#4C4848"/>
<circle id="Ellipse 8" cx="31.5" cy="3.5" r="3.5" fill="#4C4848"/>
<circle id="Ellipse 166" cx="31.5" cy="115.5" r="3.5" fill="#4C4848"/>
<circle id="Ellipse 86" cx="31.5" cy="59.5" r="3.5" fill="#4C4848"/>
<circle id="Ellipse 46" cx="31.5" cy="31.5" r="3.5" fill="#4C4848"/>
<circle id="Ellipse 168" cx="31.5" cy="143.5" r="3.5" fill="#4C4848"/>
<circle id="Ellipse 269" cx="31.5" cy="171.5" r="3.5" fill="#4C4848"/>
<circle id="Ellipse 87" cx="31.5" cy="87.5" r="3.5" fill="#4C4848"/>
<circle id="Ellipse 26" cx="31.5" cy="17.5" r="3.5" fill="#4C4848"/>
<circle id="Ellipse 170" cx="31.5" cy="129.5" r="3.5" fill="#4C4848"/>
<circle id="Ellipse 88" cx="31.5" cy="73.5" r="3.5" fill="#4C4848"/>
<circle id="Ellipse 47" cx="31.5" cy="45.5" r="3.5" fill="#4C4848"/>
<circle id="Ellipse 172" cx="31.5" cy="157.5" r="3.5" fill="#4C4848"/>
<circle id="Ellipse 270" cx="31.5" cy="185.5" r="3.5" fill="#4C4848"/>
<circle id="Ellipse 89" cx="31.5" cy="101.5" r="3.5" fill="#4C4848"/>
<circle id="Ellipse 16" cx="143.5" cy="3.5" r="3.5" fill="#4C4848"/>
<circle id="Ellipse 174" cx="143.5" cy="115.5" r="3.5" fill="#4C4848"/>
<circle id="Ellipse 90" cx="143.5" cy="59.5" r="3.5" fill="#4C4848"/>
<circle id="Ellipse 48" cx="143.5" cy="31.5" r="3.5" fill="#4C4848"/>
<circle id="Ellipse 176" cx="143.5" cy="143.5" r="3.5" fill="#4C4848"/>
<circle id="Ellipse 271" cx="143.5" cy="171.5" r="3.5" fill="#4C4848"/>
<circle id="Ellipse 91" cx="143.5" cy="87.5" r="3.5" fill="#4C4848"/>
<circle id="Ellipse 27" cx="143.5" cy="17.5" r="3.5" fill="#4C4848"/>
<circle id="Ellipse 178" cx="143.5" cy="129.5" r="3.5" fill="#4C4848"/>
<circle id="Ellipse 92" cx="143.5" cy="73.5" r="3.5" fill="#4C4848"/>
<circle id="Ellipse 49" cx="143.5" cy="45.5" r="3.5" fill="#4C4848"/>
<circle id="Ellipse 180" cx="143.5" cy="157.5" r="3.5" fill="#4C4848"/>
<circle id="Ellipse 272" cx="143.5" cy="185.5" r="3.5" fill="#4C4848"/>
<circle id="Ellipse 93" cx="143.5" cy="101.5" r="3.5" fill="#4C4848"/>
<circle id="Ellipse 11" cx="87.5" cy="3.5" r="3.5" fill="#4C4848"/>
<circle id="Ellipse 182" cx="87.5" cy="115.5" r="3.5" fill="#4C4848"/>
<circle id="Ellipse 94" cx="87.5" cy="59.5" r="3.5" fill="#4C4848"/>
<circle id="Ellipse 50" cx="87.5" cy="31.5" r="3.5" fill="#4C4848"/>
<circle id="Ellipse 184" cx="87.5" cy="143.5" r="3.5" fill="#4C4848"/>
<circle id="Ellipse 273" cx="87.5" cy="171.5" r="3.5" fill="#4C4848"/>
<circle id="Ellipse 95" cx="87.5" cy="87.5" r="3.5" fill="#4C4848"/>
<circle id="Ellipse 28" cx="87.5" cy="17.5" r="3.5" fill="#4C4848"/>
<circle id="Ellipse 186" cx="87.5" cy="129.5" r="3.5" fill="#4C4848"/>
<circle id="Ellipse 96" cx="87.5" cy="73.5" r="3.5" fill="#4C4848"/>
<circle id="Ellipse 51" cx="87.5" cy="45.5" r="3.5" fill="#4C4848"/>
<circle id="Ellipse 188" cx="87.5" cy="157.5" r="3.5" fill="#4C4848"/>
<circle id="Ellipse 274" cx="87.5" cy="185.5" r="3.5" fill="#4C4848"/>
<circle id="Ellipse 97" cx="87.5" cy="101.5" r="3.5" fill="#4C4848"/>
<circle id="Ellipse 17" cx="199.5" cy="3.5" r="3.5" fill="#4C4848"/>
<circle id="Ellipse 190" cx="199.5" cy="115.5" r="3.5" fill="#4C4848"/>
<circle id="Ellipse 98" cx="199.5" cy="59.5" r="3.5" fill="#4C4848"/>
<circle id="Ellipse 52" cx="199.5" cy="31.5" r="3.5" fill="#4C4848"/>
<circle id="Ellipse 192" cx="199.5" cy="143.5" r="3.5" fill="#4C4848"/>
<circle id="Ellipse 275" cx="199.5" cy="171.5" r="3.5" fill="#4C4848"/>
<circle id="Ellipse 99" cx="199.5" cy="87.5" r="3.5" fill="#4C4848"/>
<circle id="Ellipse 29" cx="199.5" cy="17.5" r="3.5" fill="#4C4848"/>
<circle id="Ellipse 194" cx="199.5" cy="129.5" r="3.5" fill="#4C4848"/>
<circle id="Ellipse 100" cx="199.5" cy="73.5" r="3.5" fill="#4C4848"/>
<circle id="Ellipse 53" cx="199.5" cy="45.5" r="3.5" fill="#4C4848"/>
<circle id="Ellipse 196" cx="199.5" cy="157.5" r="3.5" fill="#4C4848"/>
<circle id="Ellipse 276" cx="199.5" cy="185.5" r="3.5" fill="#4C4848"/>
<circle id="Ellipse 101" cx="199.5" cy="101.5" r="3.5" fill="#4C4848"/>
<circle id="Ellipse 7" cx="17.5" cy="3.5" r="3.5" fill="#4C4848"/>
<circle id="Ellipse 198" cx="17.5" cy="115.5" r="3.5" fill="#4C4848"/>
<circle id="Ellipse 102" cx="17.5" cy="59.5" r="3.5" fill="#4C4848"/>
<circle id="Ellipse 54" cx="17.5" cy="31.5" r="3.5" fill="#4C4848"/>
<circle id="Ellipse 200" cx="17.5" cy="143.5" r="3.5" fill="#4C4848"/>
<circle id="Ellipse 277" cx="17.5" cy="171.5" r="3.5" fill="#4C4848"/>
<circle id="Ellipse 103" cx="17.5" cy="87.5" r="3.5" fill="#4C4848"/>
<circle id="Ellipse 30" cx="17.5" cy="17.5" r="3.5" fill="#4C4848"/>
<circle id="Ellipse 202" cx="17.5" cy="129.5" r="3.5" fill="#4C4848"/>
<circle id="Ellipse 104" cx="17.5" cy="73.5" r="3.5" fill="#4C4848"/>
<circle id="Ellipse 55" cx="17.5" cy="45.5" r="3.5" fill="#4C4848"/>
<circle id="Ellipse 204" cx="17.5" cy="157.5" r="3.5" fill="#4C4848"/>
<circle id="Ellipse 278" cx="17.5" cy="185.5" r="3.5" fill="#4C4848"/>
<circle id="Ellipse 105" cx="17.5" cy="101.5" r="3.5" fill="#4C4848"/>
<circle id="Ellipse 18" cx="129.5" cy="3.5" r="3.5" fill="#4C4848"/>
<circle id="Ellipse 206" cx="129.5" cy="115.5" r="3.5" fill="#4C4848"/>
<circle id="Ellipse 106" cx="129.5" cy="59.5" r="3.5" fill="#4C4848"/>
<circle id="Ellipse 56" cx="129.5" cy="31.5" r="3.5" fill="#4C4848"/>
<circle id="Ellipse 208" cx="129.5" cy="143.5" r="3.5" fill="#4C4848"/>
<circle id="Ellipse 279" cx="129.5" cy="171.5" r="3.5" fill="#4C4848"/>
<circle id="Ellipse 107" cx="129.5" cy="87.5" r="3.5" fill="#4C4848"/>
<circle id="Ellipse 31" cx="129.5" cy="17.5" r="3.5" fill="#4C4848"/>
<circle id="Ellipse 210" cx="129.5" cy="129.5" r="3.5" fill="#4C4848"/>
<circle id="Ellipse 108" cx="129.5" cy="73.5" r="3.5" fill="#4C4848"/>
<circle id="Ellipse 57" cx="129.5" cy="45.5" r="3.5" fill="#4C4848"/>
<circle id="Ellipse 212" cx="129.5" cy="157.5" r="3.5" fill="#4C4848"/>
<circle id="Ellipse 280" cx="129.5" cy="185.5" r="3.5" fill="#4C4848"/>
<circle id="Ellipse 109" cx="129.5" cy="101.5" r="3.5" fill="#4C4848"/>
<circle id="Ellipse 12" cx="73.5" cy="3.5" r="3.5" fill="#4C4848"/>
<circle id="Ellipse 214" cx="73.5" cy="115.5" r="3.5" fill="#4C4848"/>
<circle id="Ellipse 110" cx="73.5" cy="59.5" r="3.5" fill="#4C4848"/>
<circle id="Ellipse 58" cx="73.5" cy="31.5" r="3.5" fill="#4C4848"/>
<circle id="Ellipse 216" cx="73.5" cy="143.5" r="3.5" fill="#4C4848"/>
<circle id="Ellipse 281" cx="73.5" cy="171.5" r="3.5" fill="#4C4848"/>
<circle id="Ellipse 111" cx="73.5" cy="87.5" r="3.5" fill="#4C4848"/>
<circle id="Ellipse 32" cx="73.5" cy="17.5" r="3.5" fill="#4C4848"/>
<circle id="Ellipse 218" cx="73.5" cy="129.5" r="3.5" fill="#4C4848"/>
<circle id="Ellipse 112" cx="73.5" cy="73.5" r="3.5" fill="#4C4848"/>
<circle id="Ellipse 59" cx="73.5" cy="45.5" r="3.5" fill="#4C4848"/>
<circle id="Ellipse 220" cx="73.5" cy="157.5" r="3.5" fill="#4C4848"/>
<circle id="Ellipse 282" cx="73.5" cy="185.5" r="3.5" fill="#4C4848"/>
<circle id="Ellipse 113" cx="73.5" cy="101.5" r="3.5" fill="#4C4848"/>
<circle id="Ellipse 19" cx="185.5" cy="3.5" r="3.5" fill="#4C4848"/>
<circle id="Ellipse 222" cx="185.5" cy="115.5" r="3.5" fill="#4C4848"/>
<circle id="Ellipse 114" cx="185.5" cy="59.5" r="3.5" fill="#4C4848"/>
<circle id="Ellipse 60" cx="185.5" cy="31.5" r="3.5" fill="#4C4848"/>
<circle id="Ellipse 224" cx="185.5" cy="143.5" r="3.5" fill="#4C4848"/>
<circle id="Ellipse 283" cx="185.5" cy="171.5" r="3.5" fill="#4C4848"/>
<circle id="Ellipse 115" cx="185.5" cy="87.5" r="3.5" fill="#4C4848"/>
<circle id="Ellipse 33" cx="185.5" cy="17.5" r="3.5" fill="#4C4848"/>
<circle id="Ellipse 226" cx="185.5" cy="129.5" r="3.5" fill="#4C4848"/>
<circle id="Ellipse 116" cx="185.5" cy="73.5" r="3.5" fill="#4C4848"/>
<circle id="Ellipse 61" cx="185.5" cy="45.5" r="3.5" fill="#4C4848"/>
<circle id="Ellipse 228" cx="185.5" cy="157.5" r="3.5" fill="#4C4848"/>
<circle id="Ellipse 284" cx="185.5" cy="185.5" r="3.5" fill="#4C4848"/>
<circle id="Ellipse 117" cx="185.5" cy="101.5" r="3.5" fill="#4C4848"/>
<circle id="Ellipse 9" cx="45.5" cy="3.5" r="3.5" fill="#4C4848"/>
<circle id="Ellipse 230" cx="45.5" cy="115.5" r="3.5" fill="#4C4848"/>
<circle id="Ellipse 118" cx="45.5" cy="59.5" r="3.5" fill="#4C4848"/>
<circle id="Ellipse 62" cx="45.5" cy="31.5" r="3.5" fill="#4C4848"/>
<circle id="Ellipse 232" cx="45.5" cy="143.5" r="3.5" fill="#4C4848"/>
<circle id="Ellipse 285" cx="45.5" cy="171.5" r="3.5" fill="#4C4848"/>
<circle id="Ellipse 119" cx="45.5" cy="87.5" r="3.5" fill="#4C4848"/>
<circle id="Ellipse 34" cx="45.5" cy="17.5" r="3.5" fill="#4C4848"/>
<circle id="Ellipse 234" cx="45.5" cy="129.5" r="3.5" fill="#4C4848"/>
<circle id="Ellipse 120" cx="45.5" cy="73.5" r="3.5" fill="#4C4848"/>
<circle id="Ellipse 63" cx="45.5" cy="45.5" r="3.5" fill="#4C4848"/>
<circle id="Ellipse 236" cx="45.5" cy="157.5" r="3.5" fill="#4C4848"/>
<circle id="Ellipse 286" cx="45.5" cy="185.5" r="3.5" fill="#4C4848"/>
<circle id="Ellipse 121" cx="45.5" cy="101.5" r="3.5" fill="#4C4848"/>
<circle id="Ellipse 20" cx="157.5" cy="3.5" r="3.5" fill="#4C4848"/>
<circle id="Ellipse 238" cx="157.5" cy="115.5" r="3.5" fill="#4C4848"/>
<circle id="Ellipse 122" cx="157.5" cy="59.5" r="3.5" fill="#4C4848"/>
<circle id="Ellipse 64" cx="157.5" cy="31.5" r="3.5" fill="#4C4848"/>
<circle id="Ellipse 240" cx="157.5" cy="143.5" r="3.5" fill="#4C4848"/>
<circle id="Ellipse 287" cx="157.5" cy="171.5" r="3.5" fill="#4C4848"/>
<circle id="Ellipse 123" cx="157.5" cy="87.5" r="3.5" fill="#4C4848"/>
<circle id="Ellipse 35" cx="157.5" cy="17.5" r="3.5" fill="#4C4848"/>
<circle id="Ellipse 242" cx="157.5" cy="129.5" r="3.5" fill="#4C4848"/>
<circle id="Ellipse 124" cx="157.5" cy="73.5" r="3.5" fill="#4C4848"/>
<circle id="Ellipse 65" cx="157.5" cy="45.5" r="3.5" fill="#4C4848"/>
<circle id="Ellipse 244" cx="157.5" cy="157.5" r="3.5" fill="#4C4848"/>
<circle id="Ellipse 288" cx="157.5" cy="185.5" r="3.5" fill="#4C4848"/>
<circle id="Ellipse 125" cx="157.5" cy="101.5" r="3.5" fill="#4C4848"/>
<circle id="Ellipse 13" cx="101.5" cy="3.5" r="3.5" fill="#4C4848"/>
<circle id="Ellipse 246" cx="101.5" cy="115.5" r="3.5" fill="#4C4848"/>
<circle id="Ellipse 126" cx="101.5" cy="59.5" r="3.5" fill="#4C4848"/>
<circle id="Ellipse 66" cx="101.5" cy="31.5" r="3.5" fill="#4C4848"/>
<circle id="Ellipse 248" cx="101.5" cy="143.5" r="3.5" fill="#4C4848"/>
<circle id="Ellipse 289" cx="101.5" cy="171.5" r="3.5" fill="#4C4848"/>
<circle id="Ellipse 127" cx="101.5" cy="87.5" r="3.5" fill="#4C4848"/>
<circle id="Ellipse 36" cx="101.5" cy="17.5" r="3.5" fill="#4C4848"/>
<circle id="Ellipse 250" cx="101.5" cy="129.5" r="3.5" fill="#4C4848"/>
<circle id="Ellipse 128" cx="101.5" cy="73.5" r="3.5" fill="#4C4848"/>
<circle id="Ellipse 67" cx="101.5" cy="45.5" r="3.5" fill="#4C4848"/>
<circle id="Ellipse 252" cx="101.5" cy="157.5" r="3.5" fill="#4C4848"/>
<circle id="Ellipse 290" cx="101.5" cy="185.5" r="3.5" fill="#4C4848"/>
<circle id="Ellipse 129" cx="101.5" cy="101.5" r="3.5" fill="#4C4848"/>
<circle id="Ellipse 21" cx="213.5" cy="3.5" r="3.5" fill="#4C4848"/>
<circle id="Ellipse 254" cx="213.5" cy="115.5" r="3.5" fill="#4C4848"/>
<circle id="Ellipse 130" cx="213.5" cy="59.5" r="3.5" fill="#4C4848"/>
<circle id="Ellipse 68" cx="213.5" cy="31.5" r="3.5" fill="#4C4848"/>
<circle id="Ellipse 256" cx="213.5" cy="143.5" r="3.5" fill="#4C4848"/>
<circle id="Ellipse 291" cx="213.5" cy="171.5" r="3.5" fill="#4C4848"/>
<circle id="Ellipse 131" cx="213.5" cy="87.5" r="3.5" fill="#4C4848"/>
<circle id="Ellipse 37" cx="213.5" cy="17.5" r="3.5" fill="#4C4848"/>
<circle id="Ellipse 258" cx="213.5" cy="129.5" r="3.5" fill="#4C4848"/>
<circle id="Ellipse 132" cx="213.5" cy="73.5" r="3.5" fill="#4C4848"/>
<circle id="Ellipse 69" cx="213.5" cy="45.5" r="3.5" fill="#4C4848"/>
<circle id="Ellipse 260" cx="213.5" cy="157.5" r="3.5" fill="#4C4848"/>
<circle id="Ellipse 292" cx="213.5" cy="185.5" r="3.5" fill="#4C4848"/>
<circle id="Ellipse 133" cx="213.5" cy="101.5" r="3.5" fill="#4C4848"/>
</g>
</g>
</svg>
