<svg width="389" height="831" viewBox="0 0 389 831" fill="none" xmlns="http://www.w3.org/2000/svg">
<path d="M29.5098 647.68C24.3145 644.34 20.2324 640.072 17.2637 634.877C13.9238 629.682 11.3262 624.115 9.4707 618.178C7.24414 612.24 5.57422 606.117 4.46094 599.809C2.97656 593.129 1.49219 586.82 0.0078125 580.883C0.0078125 575.688 1.12109 571.977 3.34766 569.75C5.57422 567.152 7.98633 564.74 10.584 562.514C19.4902 562.143 27.4688 561.4 34.5195 560.287C41.5703 559.174 48.4355 558.061 55.1152 556.947C61.7949 555.834 68.4746 554.906 75.1543 554.164C81.834 553.051 89.0703 552.494 96.8633 552.494C102.43 540.99 107.625 530.043 112.449 519.652C117.273 508.891 121.912 498.686 126.365 489.037C128.592 479.76 131.375 471.225 134.715 463.432C138.426 455.268 141.951 447.66 145.291 440.609C148.631 433.188 151.6 425.951 154.197 418.9C156.795 411.479 158.465 403.686 159.207 395.521C163.66 382.533 167.557 370.658 170.896 359.896C174.607 348.764 177.391 335.59 179.246 320.375C165.145 322.602 153.826 324.828 145.291 327.055C136.756 328.91 130.633 330.766 126.922 332.621C119.5 332.25 113.563 330.766 109.109 328.168C105.027 325.57 101.688 322.416 99.0898 318.705C96.4922 314.994 94.2656 310.727 92.4102 305.902C90.5547 301.078 88.3281 296.068 85.7305 290.873C87.2148 287.533 87.5859 282.709 86.8438 276.4C86.1016 269.721 83.875 264.896 80.1641 261.928C83.1328 261.186 85.3594 258.773 86.8438 254.691C88.3281 250.238 88.5137 246.898 87.4004 244.672C93.709 242.816 100.389 241.703 107.439 241.332C114.49 240.59 121.355 240.033 128.035 239.662C135.086 238.92 141.766 238.178 148.074 237.436C154.383 236.322 159.764 234.281 164.217 231.312C183.514 230.57 203.553 229.828 224.334 229.086C245.486 228.344 264.969 227.416 282.781 226.303C289.461 228.529 297.068 229.643 305.604 229.643C314.51 229.643 323.23 230.199 331.766 231.312C340.672 232.426 348.465 234.838 355.145 238.549C362.195 242.26 367.02 248.754 369.617 258.031C375.184 258.773 379.266 260.258 381.863 262.484C384.832 264.711 386.688 267.494 387.43 270.834C388.172 273.803 388.357 277.328 387.986 281.41C387.986 285.121 387.986 288.832 387.986 292.543C382.049 296.996 374.441 300.707 365.164 303.676C356.258 306.273 346.424 308.5 335.662 310.355C324.9 311.84 313.582 312.953 301.707 313.695C290.203 314.066 278.885 314.438 267.752 314.809C265.896 327.055 262.557 341.527 257.732 358.227C253.279 374.555 248.641 390.697 243.816 406.654C238.992 422.24 234.725 436.342 231.014 448.959C227.674 461.205 226.189 469.184 226.561 472.895C222.85 481.43 219.695 488.666 217.098 494.604C214.871 500.541 212.645 506.107 210.418 511.303C208.563 516.498 206.521 521.693 204.295 526.889C202.439 531.713 200.027 537.279 197.059 543.588H234.91C235.652 547.67 237.322 550.453 239.92 551.938C242.518 553.422 245.301 554.721 248.27 555.834C251.238 556.947 253.836 558.432 256.062 560.287C258.66 561.771 259.959 564.369 259.959 568.08C267.01 569.936 271.463 572.719 273.318 576.43C275.174 580.141 275.545 584.223 274.432 588.676C273.689 592.758 271.834 597.025 268.865 601.479C266.268 605.932 263.67 609.828 261.072 613.168C257.732 612.426 254.578 613.354 251.609 615.951C248.641 618.178 245.857 620.775 243.26 623.744C232.498 622.26 221.922 622.074 211.531 623.188C201.141 624.301 191.492 625.229 182.586 625.971C180.73 626.342 179.988 627.455 180.359 629.311C180.73 630.795 180.359 631.908 179.246 632.65C167.742 628.939 155.867 627.455 143.621 628.197C131.746 628.939 119.5 630.795 106.883 633.764C94.6367 636.361 82.0195 639.145 69.0313 642.113C56.043 645.453 42.8691 647.309 29.5098 647.68Z" fill="#FAFAFA"/>
</svg>
