<svg width="64" height="69" viewBox="0 0 64 69" fill="none" xmlns="http://www.w3.org/2000/svg">
<path d="M14.2084 49.012C15.0161 47.5374 16.3465 46.4613 17.9068 46.0206C19.4672 45.5799 21.1298 45.8106 22.5288 46.662C23.9278 47.5134 24.9486 48.9158 25.3667 50.5606C25.7848 52.2054 25.566 53.9579 24.7582 55.4326C23.9505 56.9072 22.6202 57.9833 21.0598 58.424C19.4994 58.8648 17.8368 58.634 16.4378 57.7826C15.0389 56.9312 14.018 55.5288 13.5999 53.884C13.1818 52.2392 13.4007 50.4867 14.2084 49.012ZM15.7067 49.7858C15.4178 50.3134 15.2302 50.8959 15.1548 51.4999C15.0793 52.1039 15.1175 52.7177 15.2671 53.3061C15.4167 53.8946 15.6747 54.4462 16.0266 54.9296C16.3784 55.4129 16.8171 55.8185 17.3176 56.1231C17.8182 56.4277 18.3707 56.6254 18.9437 56.705C19.5168 56.7845 20.0991 56.7443 20.6573 56.5866C21.2156 56.4289 21.7389 56.1568 22.1975 55.786C22.656 55.4151 23.0407 54.9526 23.3297 54.425C23.9133 53.3594 24.0715 52.0932 23.7694 50.9047C23.4673 49.7162 22.7296 48.7029 21.7188 48.0877C20.7079 47.4725 19.5066 47.3058 18.3791 47.6243C17.2517 47.9427 16.2904 48.7202 15.7067 49.7858Z" fill="#EDEDED"/>
<path d="M18.8416 18.2473C21.396 13.5835 25.6034 10.1805 30.5381 8.78666C35.4728 7.39286 40.7307 8.12256 45.155 10.8152C49.5794 13.5078 52.8078 17.9428 54.1301 23.1445C55.4523 28.3462 54.7601 33.8885 52.2057 38.5523C49.6513 43.216 45.444 46.6191 40.5093 48.0129C35.5746 49.4067 30.3166 48.677 25.8923 45.9844C21.4679 43.2918 18.2395 38.8568 16.9173 33.6551C15.595 28.4533 16.2872 22.911 18.8416 18.2473ZM20.4063 19.2456C19.2628 21.3334 18.5206 23.6381 18.222 26.0282C17.9235 28.4183 18.0746 30.847 18.6665 33.1756C19.2584 35.5042 20.2797 37.6871 21.6719 39.5997C23.0641 41.5123 24.8001 43.1171 26.7807 44.3225C30.7807 46.7568 35.5343 47.4165 39.9957 46.1564C44.4572 44.8962 48.261 41.8196 50.5704 37.6031C52.8798 33.3867 53.5057 28.3759 52.3102 23.673C51.1148 18.9702 48.196 14.9606 44.196 12.5262C42.2154 11.3208 40.029 10.5385 37.7615 10.2239C35.4941 9.90919 33.19 10.0684 30.981 10.6923C28.7719 11.3163 26.701 12.3927 24.8866 13.8603C23.0722 15.3279 21.5498 17.1578 20.4063 19.2456Z" fill="#EDEDED"/>
<path d="M28.5549 24.4273C29.7597 22.2274 31.7443 20.6223 34.072 19.9649C36.3996 19.3074 38.8796 19.6515 40.9665 20.9216C41.9999 21.5505 42.9056 22.3878 43.632 23.3856C44.3583 24.3834 44.8911 25.5223 45.1999 26.7372C45.5087 27.9521 45.5875 29.2192 45.4318 30.4662C45.276 31.7132 44.8888 32.9156 44.2922 34.0048C43.6956 35.0941 42.9014 36.0488 41.9547 36.8144C41.0081 37.5801 39.9277 38.1417 38.7752 38.4673C37.6227 38.7928 36.4206 38.8759 35.2376 38.7117C34.0546 38.5475 32.9139 38.1393 31.8806 37.5104C29.7937 36.2404 28.2709 34.1485 27.6472 31.6949C27.0235 29.2413 27.35 26.6271 28.5549 24.4273ZM39.0248 21.9379C37.2384 21.2263 35.2501 21.3109 33.4975 22.1732C31.7448 23.0354 30.3713 24.6045 29.6791 26.5355C29.3364 27.4916 29.1712 28.5077 29.1931 29.5259C29.2149 30.544 29.4234 31.5443 29.8065 32.4695C30.1897 33.3947 30.7399 34.2267 31.426 34.9181C32.1121 35.6095 32.9205 36.1468 33.8051 36.4991C35.5915 37.2106 37.5797 37.126 39.3324 36.2638C41.0851 35.4015 42.4586 33.8324 43.1508 31.9014C43.4935 30.9453 43.6587 29.9292 43.6368 28.9111C43.6149 27.8929 43.4065 26.8927 43.0234 25.9675C42.6403 25.0423 42.0899 24.2102 41.4038 23.5188C40.7178 22.8274 39.9094 22.2902 39.0248 21.9379Z" fill="#FFD9B5"/>
<path d="M39.0248 21.9379C39.9094 22.2902 40.7178 22.8274 41.4038 23.5188C42.0899 24.2102 42.6403 25.0422 43.0234 25.9674C43.4065 26.8926 43.6149 27.8929 43.6368 28.911C43.6587 29.9292 43.4935 30.9453 43.1508 31.9014C42.4586 33.8323 41.0851 35.4015 39.3324 36.2637C37.5797 37.1259 35.5915 37.2106 33.8051 36.499C32.9205 36.1467 32.1121 35.6095 31.426 34.9181C30.7399 34.2267 30.1897 33.3947 29.8065 32.4695C29.4234 31.5442 29.2149 30.544 29.1931 29.5258C29.1712 28.5077 29.3364 27.4915 29.6791 26.5354C30.3713 24.6045 31.7448 23.0353 33.4975 22.1731C35.2501 21.3109 37.2384 21.2263 39.0248 21.9379Z" fill="#FFD9B5"/>
<path d="M20.372 48.6728C20.6042 48.7653 20.8164 48.9063 20.9965 49.0878C21.1766 49.2693 21.3211 49.4878 21.4217 49.7307C21.5222 49.9735 21.577 50.2361 21.5827 50.5034C21.5884 50.7707 21.5451 51.0374 21.4551 51.2884C21.2734 51.7953 20.9128 52.2073 20.4527 52.4336C19.9926 52.66 19.4707 52.6822 19.0017 52.4954C18.7695 52.4029 18.5572 52.2619 18.3771 52.0804C18.197 51.8989 18.0526 51.6804 17.952 51.4376C17.8514 51.1947 17.7967 50.9321 17.7909 50.6648C17.7852 50.3975 17.8286 50.1308 17.9185 49.8798C18.1002 49.3729 18.4608 48.9609 18.9209 48.7346C19.381 48.5082 19.903 48.486 20.372 48.6728Z" fill="#FFD9B5"/>
</svg>
