<svg width="38" height="85" viewBox="0 0 38 85" fill="none" xmlns="http://www.w3.org/2000/svg">
<path d="M32.5483 1.0847C32.5483 1.0847 4.64011 -1.30811 1.22148 19.3427C0.358775 24.554 2.08662 28.9382 5.18241 32.3464M5.18241 32.3464C14.3542 42.4441 35.5332 43.9762 36.9249 33.076C38.5255 20.5396 14.1085 17.9591 5.18241 32.3464ZM5.18241 32.3464C3.72773 34.6911 2.68447 37.4864 2.23228 40.7627C1.0192 49.5519 4.79094 56.2014 10.0669 60.4792M10.0669 60.4792C18.8255 67.5809 31.7297 68.1464 32.8547 61.1142C34.4478 51.157 15.9308 50.0382 10.0669 60.4792ZM10.0669 60.4792C9.29486 61.8538 8.74216 63.4288 8.48354 65.2104C6.26056 80.5239 25.9132 84 25.9132 84" stroke="#F6F6F7" stroke-width="2"/>
</svg>
